<?xml version="1.0" encoding="utf-8"?>
<!-- Generator: Adobe Illustrator 17.0.0, SVG Export Plug-In . SVG Version: 6.00 Build 0)  -->
<!DOCTYPE svg PUBLIC "-//W3C//DTD SVG 1.1//EN" "http://www.w3.org/Graphics/SVG/1.1/DTD/svg11.dtd">
<svg version="1.1" id="Camada_1" xmlns="http://www.w3.org/2000/svg" xmlns:xlink="http://www.w3.org/1999/xlink" x="0px" y="0px"
	 width="256.849px" height="128.767px" viewBox="0 0 256.849 128.767" enable-background="new 0 0 256.849 128.767"
	 xml:space="preserve">
<g>
	<g>
		<path fill="#FFFFFF" d="M189.589,44.96c-0.401-0.674-0.917-1.018-1.735-1.018c-0.86,0-1.806,0.588-1.806,1.533
			c0,0.846,0.831,1.291,1.505,1.549l0.774,0.301c1.533,0.602,2.68,1.448,2.68,3.254c0,1.964-1.519,3.369-3.454,3.369
			c-1.749,0-3.111-1.29-3.34-3.024l1.362-0.287c-0.015,1.19,0.931,2.05,2.092,2.05c1.162,0,1.993-0.974,1.993-2.107
			c0-1.161-0.931-1.663-1.864-2.05l-0.745-0.316c-1.233-0.53-2.351-1.233-2.351-2.738c0-1.749,1.548-2.795,3.182-2.795
			c1.204,0,2.193,0.588,2.781,1.634L189.589,44.96z"/>
		<path fill="#FFFFFF" d="M198.258,53.719h-1.347v-9.576h-2.566V42.91h6.48v1.233h-2.567V53.719z"/>
		<path fill="#FFFFFF" d="M205.911,42.91v6.379c0,1.763,0.53,3.397,2.609,3.397c2.078,0,2.609-1.634,2.609-3.397V42.91h1.347v6.838
			c0,2.379-1.476,4.2-3.956,4.2c-2.48,0-3.957-1.821-3.957-4.2V42.91H205.911z"/>
		<path fill="#FFFFFF" d="M217.089,42.91h2.236c3.311,0,6.064,1.749,6.064,5.347c0,3.685-2.695,5.462-6.107,5.462h-2.193V42.91z
			 M218.436,52.486h0.474c2.752,0,5.132-1.032,5.132-4.171c0-3.154-2.379-4.171-5.132-4.171h-0.474V52.486z"/>
		<path fill="#FFFFFF" d="M230.904,53.719h-1.347V42.91h1.347V53.719z"/>
		<path fill="#FFFFFF" d="M246.356,48.314c0,3.211-2.538,5.634-5.663,5.634c-3.125,0-5.663-2.423-5.663-5.634
			c0-3.096,2.567-5.634,5.663-5.634C243.79,42.681,246.356,45.218,246.356,48.314z M245.008,48.314c0-2.38-1.777-4.372-4.315-4.372
			c-2.537,0-4.315,1.992-4.315,4.372c0,2.465,1.979,4.372,4.315,4.372C243.03,52.686,245.008,50.78,245.008,48.314z"/>
	</g>
	<g>
		<path fill="#FFFFFF" d="M130.289,107.845h1.642c1.815,0,3.337,0.662,3.337,2.7c0,0.808-0.304,1.497-0.979,1.948
			c1.191,0.291,1.893,1.364,1.893,2.556c0,1.986-1.603,2.78-3.576,2.78h-2.317V107.845z M131.401,112.241h0.424
			c1.258,0,2.331-0.145,2.331-1.695c0-1.509-0.953-1.668-2.317-1.668h-0.437V112.241z M131.401,116.796h1.112
			c1.245,0,2.556-0.304,2.556-1.827c0-1.55-1.483-1.775-2.702-1.775h-0.967V116.796z"/>
		<path fill="#FFFFFF" d="M139.666,114.944c0.014,1.152,0.834,2.078,2.039,2.078c0.902,0,1.483-0.543,1.895-1.285l0.901,0.517
			c-0.596,1.112-1.603,1.748-2.874,1.748c-1.854,0-3.045-1.418-3.045-3.205c0-1.84,1.072-3.363,3.018-3.363
			c2.001,0,3.06,1.654,2.954,3.51H139.666z M143.44,114.042c-0.147-0.899-0.901-1.629-1.828-1.629c-0.913,0-1.76,0.729-1.893,1.629
			H143.44z"/>
		<path fill="#FFFFFF" d="M148.367,117.83h-1.059v-10.926h1.059V117.83z"/>
		<path fill="#FFFFFF" d="M152.197,114.944c0.014,1.152,0.834,2.078,2.039,2.078c0.902,0,1.483-0.543,1.895-1.285l0.901,0.517
			c-0.596,1.112-1.603,1.748-2.874,1.748c-1.854,0-3.045-1.418-3.045-3.205c0-1.84,1.072-3.363,3.018-3.363
			c2.001,0,3.06,1.654,2.954,3.51H152.197z M155.971,114.042c-0.147-0.899-0.901-1.629-1.828-1.629c-0.913,0-1.76,0.729-1.893,1.629
			H155.971z"/>
		<path fill="#FFFFFF" d="M165.427,116.851v0.979h-6.437l4.49-5.244h-3.655v-0.981h5.787l-4.477,5.245H165.427z"/>
		<path fill="#FFFFFF" d="M173.745,117.83h-1.059v-0.861h-0.027c-0.543,0.689-1.271,1.034-2.145,1.034
			c-1.828,0-2.98-1.55-2.98-3.271c0-1.775,1.126-3.298,2.992-3.298c0.848,0,1.616,0.397,2.132,1.059h0.027v-0.888h1.059V117.83z
			 M168.619,114.652c0,1.218,0.716,2.37,2.04,2.37c1.364,0,2.079-1.099,2.079-2.357c0-1.245-0.781-2.252-2.093-2.252
			C169.415,112.413,168.619,113.486,168.619,114.652z"/>
		<path fill="#FFFFFF" d="M182.965,114.944c0.014,1.152,0.834,2.078,2.039,2.078c0.902,0,1.483-0.543,1.895-1.285l0.901,0.517
			c-0.596,1.112-1.603,1.748-2.874,1.748c-1.854,0-3.045-1.418-3.045-3.205c0-1.84,1.072-3.363,3.018-3.363
			c2.001,0,3.06,1.654,2.954,3.51H182.965z M186.739,114.042c-0.147-0.899-0.901-1.629-1.828-1.629c-0.913,0-1.76,0.729-1.893,1.629
			H186.739z"/>
		<path fill="#FFFFFF" d="M196.039,107.845h5.178v1.032h-4.065v2.966h3.946v1.032h-3.946v3.92h4.065v1.034h-5.178V107.845z"/>
		<path fill="#FFFFFF" d="M206.953,113.049c-0.147-0.33-0.464-0.636-0.848-0.636c-0.372,0-0.769,0.292-0.769,0.689
			c0,0.57,0.714,0.782,1.444,1.087c0.728,0.304,1.444,0.742,1.444,1.787c0,1.179-0.953,2.026-2.107,2.026
			c-1.046,0-1.868-0.596-2.198-1.576l0.94-0.398c0.265,0.583,0.569,0.993,1.271,0.993c0.569,0,1.006-0.383,1.006-0.953
			c0-1.391-2.808-0.913-2.808-2.874c0-1.046,0.848-1.76,1.854-1.76c0.714,0,1.377,0.503,1.656,1.152L206.953,113.049z"/>
		<path fill="#FFFFFF" d="M212.158,117.83h-1.059v-5.244h-0.649v-0.981h0.649v-2.237h1.059v2.237h1.112v0.981h-1.112V117.83z"/>
		<path fill="#FFFFFF" d="M216.078,114.944c0.014,1.152,0.834,2.078,2.039,2.078c0.902,0,1.483-0.543,1.895-1.285l0.901,0.517
			c-0.596,1.112-1.603,1.748-2.874,1.748c-1.854,0-3.045-1.418-3.045-3.205c0-1.84,1.072-3.363,3.018-3.363
			c2.001,0,3.06,1.654,2.954,3.51H216.078z M219.853,114.042c-0.147-0.899-0.901-1.629-1.828-1.629c-0.913,0-1.76,0.729-1.893,1.629
			H219.853z M219.866,108.481l-2.026,2.039l-0.663-0.371l1.576-2.172L219.866,108.481z"/>
		<path fill="#FFFFFF" d="M224.86,117.83h-1.059v-5.244h-0.649v-0.981h0.649v-2.237h1.059v2.237h1.112v0.981h-1.112V117.83z"/>
		<path fill="#FFFFFF" d="M229.734,109.262c0,0.424-0.345,0.754-0.755,0.754c-0.41,0-0.755-0.33-0.755-0.754
			c0-0.411,0.345-0.755,0.755-0.755C229.389,108.507,229.734,108.851,229.734,109.262z M229.508,117.83h-1.059v-6.225h1.059V117.83z
			"/>
		<path fill="#FFFFFF" d="M237.667,113.46h-0.027c-0.49-0.623-1.099-1.047-1.933-1.047c-1.285,0-2.199,1.059-2.199,2.305
			c0,1.231,0.848,2.304,2.146,2.304c0.887,0,1.509-0.397,2.025-1.073h0.027v1.418c-0.609,0.41-1.232,0.636-1.974,0.636
			c-1.88,0-3.31-1.404-3.31-3.284c0-1.854,1.497-3.284,3.324-3.284c0.675,0,1.364,0.225,1.921,0.622V113.46z"/>
		<path fill="#FFFFFF" d="M246.356,117.83h-1.059v-0.861h-0.027c-0.543,0.689-1.271,1.034-2.145,1.034
			c-1.828,0-2.98-1.55-2.98-3.271c0-1.775,1.126-3.298,2.992-3.298c0.848,0,1.616,0.397,2.132,1.059h0.027v-0.888h1.059V117.83z
			 M241.23,114.652c0,1.218,0.716,2.37,2.04,2.37c1.364,0,2.079-1.099,2.079-2.357c0-1.245-0.781-2.252-2.093-2.252
			C242.026,112.413,241.23,113.486,241.23,114.652z"/>
	</g>
	<g>
		<path fill="#FFFFFF" d="M145.512,45.862v21.594h12.006c3.116,0,5.197-0.47,6.245-1.41c1.397-1.235,2.176-3.411,2.337-6.527h1.491
			v19.016h-1.491c-0.376-2.659-0.752-4.365-1.128-5.117c-0.483-0.94-1.276-1.679-2.377-2.216s-2.793-0.806-5.076-0.806h-12.006
			v15.511c0,2.417,0.107,3.888,0.322,4.412s0.591,0.94,1.128,1.249c0.537,0.309,1.558,0.463,3.062,0.463h9.266
			c3.089,0,5.331-0.215,6.728-0.645c1.397-0.43,2.74-1.276,4.029-2.538c1.665-1.665,3.371-4.177,5.117-7.534h1.612l-4.714,16.195
			H129.96v-1.491h1.934c1.289,0,2.511-0.309,3.666-0.927c0.859-0.43,1.444-1.074,1.753-1.934c0.309-0.859,0.463-2.619,0.463-5.278
			V52.389c0-3.465-0.349-5.6-1.047-6.406c-0.967-1.074-2.578-1.612-4.835-1.612h-1.934v-1.491h42.101l0.604,11.965h-1.571
			c-0.564-2.874-1.188-4.848-1.873-5.922c-0.685-1.074-1.699-1.894-3.042-2.458c-1.074-0.403-2.968-0.604-5.681-0.604H145.512z"/>
		<path fill="#FFFFFF" d="M243.488,59.405V72.01h-1.333c-1.023-3.959-2.336-6.653-3.939-8.08s-3.643-2.141-6.121-2.141
			c-1.885,0-3.407,0.498-4.565,1.495s-1.737,2.101-1.737,3.313c0,1.508,0.431,2.801,1.293,3.878c0.835,1.104,2.532,2.276,5.09,3.515
			l5.898,2.868c5.468,2.666,8.201,6.181,8.201,10.545c0,3.367-1.273,6.08-3.818,8.141c-2.545,2.06-5.393,3.091-8.545,3.091
			c-2.262,0-4.848-0.404-7.757-1.212c-0.889-0.269-1.616-0.404-2.182-0.404c-0.619,0-1.104,0.35-1.454,1.05h-1.333V84.857h1.333
			c0.754,3.771,2.195,6.612,4.323,8.524c2.128,1.912,4.511,2.868,7.151,2.868c1.858,0,3.373-0.545,4.545-1.636
			c1.172-1.091,1.757-2.404,1.757-3.939c0-1.858-0.653-3.421-1.959-4.686c-1.306-1.266-3.912-2.868-7.817-4.808
			c-3.905-1.939-6.464-3.69-7.676-5.252c-1.212-1.535-1.818-3.474-1.818-5.818c0-3.044,1.044-5.589,3.131-7.636
			c2.087-2.047,4.787-3.07,8.1-3.07c1.454,0,3.219,0.31,5.292,0.929c1.374,0.404,2.289,0.606,2.747,0.606
			c0.431,0,0.768-0.094,1.01-0.283c0.242-0.189,0.525-0.606,0.848-1.252H243.488z"/>
		<path fill="#FFFFFF" d="M198.264,59.479c-9.797,0-17.74,8.782-17.74,19.614s7.942,19.614,17.74,19.614
			c9.798,0,17.74-8.782,17.74-19.614S208.062,59.479,198.264,59.479z M198.264,96.127c-5.906,0-10.693-7.626-10.693-17.034
			c0-9.407,4.787-17.034,10.693-17.034c5.906,0,10.693,7.626,10.693,17.034C208.957,88.501,204.17,96.127,198.264,96.127z"/>
	</g>
</g>
<g>
	<g>
		<path fill="#FFFFFF" d="M66.315,86.919c0,0-0.553-0.398-1.482,0.995C64.833,87.914,66.226,87.958,66.315,86.919z"/>
		<path fill="#FFFFFF" d="M61.742,86.919c0.088,1.039,1.482,0.995,1.482,0.995C62.295,86.521,61.742,86.919,61.742,86.919z"/>
		<path fill="#FFFFFF" d="M58.723,75.51c0.687,0.254,1.324,0.617,1.973,0.953c0.288,0.149,0.582,0.289,0.88,0.418
			c0.879,0.382,1.011,0.042,0.732-0.185c-1.081-0.877-1.944-1.487-3.663-1.798c-1.306-0.237-2.581-0.175-4.147,0.791
			C55.859,75.117,57.323,74.993,58.723,75.51z"/>
		<path fill="#FFFFFF" d="M64.044,90.504c-0.646-0.757-2.282,0.353-2.282,0.353c-1.065,0.793-2.467,0.894-2.467,0.894
			c1.588,1.012,1.934,2.663,4.749,2.663c3.054,0,3.161-1.651,4.749-2.663c0,0-1.402-0.101-2.467-0.894
			C66.326,90.857,64.69,89.747,64.044,90.504z M63.335,93.648c-0.046,0.013-0.096,0.026-0.15,0.035
			c-0.054,0.008-0.113,0.027-0.173,0.023c-0.061,0-0.124,0-0.188-0.004c-0.065-0.001-0.127-0.021-0.191-0.033
			c-0.063-0.015-0.126-0.031-0.183-0.058c-0.058-0.025-0.115-0.049-0.166-0.079c-0.05-0.031-0.096-0.066-0.138-0.098
			c-0.044-0.028-0.079-0.071-0.111-0.104c-0.068-0.067-0.099-0.13-0.122-0.177c-0.022-0.047-0.033-0.076-0.033-0.076
			s0.033,0.007,0.086,0.023c0.052,0.017,0.128,0.045,0.207,0.066c0.041,0.011,0.078,0.026,0.125,0.038
			c0.046,0.013,0.094,0.024,0.14,0.041c0.098,0.021,0.195,0.058,0.298,0.075c0.051,0.011,0.1,0.029,0.151,0.036
			c0.051,0.008,0.1,0.019,0.149,0.031c0.049,0.015,0.097,0.017,0.144,0.027c0.047,0.007,0.092,0.017,0.134,0.028
			c0.167,0.019,0.3,0.06,0.3,0.06S63.515,93.579,63.335,93.648z M66.361,93.239c-0.039,0.043-0.079,0.091-0.135,0.129
			c-0.053,0.041-0.11,0.086-0.171,0.128c-0.059,0.045-0.126,0.086-0.205,0.116c-0.076,0.033-0.153,0.068-0.235,0.093
			c-0.087,0.017-0.174,0.034-0.259,0.046c-0.086,0.006-0.172-0.001-0.253-0.004c-0.081-0.004-0.152-0.028-0.222-0.042
			c-0.071-0.013-0.128-0.036-0.184-0.056c-0.221-0.077-0.366-0.155-0.366-0.155s0.162-0.042,0.399-0.049
			c0.058-0.002,0.121-0.004,0.187-0.007c0.062-0.005,0.13-0.003,0.194-0.011c0.063-0.008,0.127-0.015,0.193-0.023
			c0.063-0.018,0.127-0.031,0.192-0.044c0.064-0.018,0.127-0.047,0.191-0.067l0.096-0.031c0.031-0.014,0.062-0.029,0.092-0.043
			c0.122-0.055,0.246-0.095,0.348-0.146c0.205-0.094,0.37-0.137,0.37-0.137S66.517,93.07,66.361,93.239z M64.033,92.25
			c-0.253,0.011-1.971,0.247-2.31-0.482c0,0,1.702-0.627,2.31-0.119c0.78-0.467,2.346,0.096,2.346,0.096
			C66.039,92.474,64.286,92.261,64.033,92.25z"/>
		<path fill="#FFFFFF" d="M66.441,76.881c0.298-0.129,0.592-0.269,0.88-0.418c0.649-0.336,1.286-0.699,1.973-0.953
			c1.4-0.518,2.864-0.394,4.225,0.179c-1.567-0.966-2.841-1.028-4.147-0.791c-1.719,0.311-2.582,0.921-3.663,1.798
			C65.43,76.923,65.562,77.263,66.441,76.881z"/>
		<path fill="#FFFFFF" d="M106.424,58.025c-0.258,0.11-0.379,0.408-0.27,0.666c2.391,5.64,3.604,11.634,3.604,17.813
			c0,13.885-6.228,26.341-16.036,34.726c0.321-3.903-1.002-5.811-2.83-7.056c6.383-6.392,10.971-12.234,12.307-15.695
			c0.005-0.013,0.003-0.026,0.007-0.038c0.532-1.555,0.47-3.098-0.186-4.465c-0.585-1.22-1.601-2.191-2.896-2.782
			c1.041-1.939,1.808-3.682,2.264-5.087c0.004-0.013,0.001-0.027,0.005-0.04c0.445-1.582,0.299-3.118-0.431-4.447
			c-0.674-1.228-1.798-2.161-3.19-2.668c0.887-2.4,1.297-4.379,1.536-5.965c0.002-0.014-0.003-0.026-0.002-0.04
			c0.181-1.633-0.215-3.125-1.152-4.317c-0.954-1.214-2.386-1.99-4.031-2.185c-0.025-0.003-0.049,0.005-0.074,0.006
			c-0.034,0.001-0.068,0-0.101,0.008c-0.031,0.007-0.058,0.021-0.087,0.034c-0.031,0.014-0.061,0.026-0.089,0.046
			c-0.025,0.018-0.045,0.041-0.067,0.063c-0.024,0.024-0.047,0.047-0.066,0.076c-0.018,0.028-0.028,0.059-0.041,0.091
			c-0.009,0.024-0.025,0.043-0.031,0.069c-0.881,3.864-3.625,13.449-10.224,20.143c-0.83-1.07-1.84-1.994-2.986-2.728
			c0.044-0.415,0.071-0.834,0.071-1.251c0-5.377-3.595-10.039-8.764-11.423c-1.685-3.167-4.963-4.885-8.631-4.504
			c-3.667-0.383-6.946,1.337-8.631,4.504C50.234,62.961,46.64,67.623,46.64,73c0,0.418,0.027,0.836,0.071,1.251
			c-1.184,0.759-2.226,1.719-3.071,2.835c-6.676-6.698-9.445-16.365-10.331-20.25c-0.006-0.025-0.021-0.045-0.031-0.068
			c-0.012-0.032-0.023-0.063-0.041-0.092c-0.018-0.028-0.041-0.05-0.064-0.074c-0.022-0.023-0.043-0.046-0.069-0.065
			c-0.027-0.019-0.057-0.032-0.088-0.045c-0.029-0.013-0.056-0.027-0.088-0.034c-0.033-0.008-0.067-0.007-0.102-0.008
			c-0.025-0.001-0.048-0.009-0.073-0.006c-1.646,0.195-3.077,0.971-4.031,2.185c-0.937,1.192-1.333,2.684-1.152,4.317
			c0.001,0.014-0.004,0.026-0.002,0.04c0.239,1.586,0.649,3.566,1.536,5.965c-1.391,0.508-2.515,1.44-3.19,2.668
			c-0.73,1.33-0.876,2.867-0.43,4.449c0.003,0.013,0,0.025,0.004,0.038c0.456,1.405,1.222,3.149,2.264,5.087
			c-1.295,0.59-2.311,1.562-2.896,2.782c-0.656,1.367-0.718,2.909-0.187,4.464c0.004,0.013,0.002,0.027,0.007,0.04
			c1.342,3.475,5.961,9.35,12.386,15.774c-1.758,1.238-3.015,3.13-2.723,6.903c-9.758-8.385-15.949-20.809-15.949-34.653
			c0-6.141,1.198-12.1,3.561-17.712c0.109-0.258-0.013-0.556-0.271-0.665c-0.259-0.108-0.557,0.012-0.666,0.271
			c-2.415,5.737-3.64,11.828-3.64,18.106c0,16.323,8.42,30.714,21.143,39.066c0.065,0.079,0.15,0.136,0.25,0.165
			c7.296,4.723,15.986,7.469,25.306,7.469c25.75,0,46.7-20.95,46.7-46.7c0-6.317-1.24-12.443-3.684-18.21
			C106.98,58.036,106.683,57.915,106.424,58.025z M95.449,57.528c1.185,0.237,2.206,0.84,2.906,1.73
			c0.78,0.993,1.104,2.251,0.937,3.639c0,0.003,0.001,0.005,0.001,0.008c-0.569,3.722-2.116,9.642-8.833,18.224
			c-0.173,0.221-0.134,0.54,0.087,0.713c0.093,0.073,0.203,0.108,0.313,0.108c0.151,0,0.3-0.067,0.4-0.195
			c3.677-4.699,5.84-8.629,7.146-11.855c1.168,0.422,2.107,1.194,2.665,2.21c0.608,1.107,0.721,2.401,0.329,3.743
			c0,0.001,0,0.002,0,0.003c-0.474,1.442-1.284,3.246-2.383,5.249c-0.045,0.049-0.081,0.108-0.104,0.174
			c-0.002,0.006-0.001,0.012-0.003,0.018c-2.234,4.03-5.631,8.843-9.908,13.195c-0.196,0.2-0.194,0.522,0.006,0.718
			c0.099,0.097,0.228,0.146,0.356,0.146c0.131,0,0.263-0.051,0.362-0.152c4.23-4.304,7.621-9.068,9.902-13.115
			c1.112,0.489,1.984,1.301,2.475,2.326c0.546,1.139,0.589,2.437,0.124,3.755l0,0c-1.329,3.375-5.883,9.131-12.229,15.462
			c-0.634-0.346-1.301-0.646-1.965-0.942c-1.116-0.499-2.271-1.016-3.211-1.756c-2.14-1.683-3.718-3.267-3.661-6.705
			c3.486-2.146,5.643-5.978,5.643-10.079c0-2.329-0.687-4.5-1.866-6.329C91.56,71.189,94.437,61.764,95.449,57.528z M85.788,84.15
			c0,3.502-1.721,6.788-4.544,8.806c0.069-0.597,0.178-1.239,0.334-1.941c0.921-4.135-0.606-7.577-1.87-9.569
			c0.237,0.084,0.479,0.157,0.726,0.219c0.028,0.012,0.051,0.03,0.081,0.038c1.274,0.304,2.161,1.055,2.639,2.233
			c0.08,0.197,0.27,0.317,0.471,0.317c0.063,0,0.128-0.012,0.191-0.037c0.26-0.105,0.385-0.402,0.28-0.662
			c-0.572-1.411-1.657-2.364-3.136-2.777c-0.036-0.018-0.069-0.04-0.11-0.049c-3.371-0.753-5.675-3.914-5.422-7.312
			C81.182,73.667,85.788,78.379,85.788,84.15z M82.75,106.45c0.983,0.261,1.871,0.353,2.729,0.441
			c2.308,0.238,4.18,0.444,6.304,4.205c-1.9-0.768-3.656-0.767-5.363-0.766c-1.714,0.001-3.494,0.003-5.499-0.76
			c-5.616-2.138-5.895-4.93-6.217-8.164c-0.189-1.893-0.405-4.036-1.752-6.156c0.479-0.428,0.923-0.852,1.304-1.261
			c0.819-0.879,1.441-2.334,1.913-3.985c0.439,1.191,0.94,3.235,0.642,5.942C76.158,101.861,78.045,105.199,82.75,106.45z
			 M73.512,93.297c-2.764,2.964-8.182,6.304-9.41,6.304c-1.776,0-6.027-2.48-9.284-5.416c-2.335-2.105-3.24-11.25-3.391-14.597
			c-0.002-0.036-0.016-0.066-0.025-0.099c1.549-1.596,2.417-3.812,2.251-6.129c4.125-0.391,7.659-3.698,7.903-7.488
			c1.126-1.033,1.99-2.347,2.478-3.836c0.488,1.489,1.352,2.803,2.478,3.836c0.244,3.79,3.779,7.097,7.903,7.489
			c-0.165,2.31,0.698,4.52,2.238,6.115c-0.028,0.058-0.045,0.123-0.048,0.193C76.519,82.63,75.793,90.852,73.512,93.297z
			 M72.56,108.251c-4.249,0.283-7.011,2.624-8.477,4.324c-1.893-1.978-5.827-3.923-8.614-4.287c2.396-4.16,1.812-8.877,1.281-11.232
			c2.682,1.965,5.647,3.561,7.353,3.561c1.258,0,4.562-1.931,7.328-4.099C70.89,98.615,69.99,103.754,72.56,108.251z
			 M73.198,109.247c0.254,0.358,0.529,0.7,0.822,1.028c-5.397,0.29-7.947,3.153-9.943,6.251c-1.922-2.644-5.68-6.017-9.797-6.538
			c0.199-0.238,0.388-0.484,0.568-0.737c2.713,0.131,7.237,2.371,8.847,4.423c0.096,0.123,0.244,0.194,0.4,0.194
			c0.156,0,0.303-0.072,0.4-0.194C65.774,112.043,68.594,109.333,73.198,109.247z M51.257,95.947
			c-0.288-2.612,0.175-4.616,0.604-5.826c0.543,2.091,1.28,3.921,2.276,4.82c0.247,0.223,0.507,0.446,0.771,0.669
			c-1.154,2.002-1.367,4.011-1.545,5.797c-0.322,3.233-0.601,6.026-6.217,8.164c-2.005,0.763-3.781,0.762-5.499,0.76
			c-1.71,0-3.464-0.001-5.363,0.766c2.125-3.761,3.997-3.967,6.304-4.205c0.858-0.088,1.746-0.18,2.729-0.441
			C50.022,105.199,51.909,101.861,51.257,95.947z M55.856,62.502c0.002-0.001,0.004-0.002,0.006-0.003
			c0.142-0.033,0.269-0.124,0.339-0.265c1.463-2.924,4.444-4.512,7.777-4.147c0.019,0.002,0.037-0.005,0.056-0.005
			c0.019,0,0.036,0.007,0.055,0.005c3.332-0.365,6.314,1.222,7.777,4.147c0.07,0.14,0.197,0.232,0.339,0.265
			c0.002,0.001,0.004,0.002,0.006,0.003c4.828,1.199,8.2,5.516,8.2,10.498c0,0.231-0.007,0.463-0.022,0.694
			c-1.631-0.841-3.481-1.319-5.441-1.319c-0.013,0-0.024,0.007-0.037,0.008c-3.385-0.144-6.492-2.635-7.229-5.598
			c1.394,0.908,3.049,1.441,4.828,1.441c0.807,0,1.544-0.087,2.255-0.267c0.272-0.069,0.437-0.345,0.368-0.617
			c-0.069-0.272-0.347-0.436-0.617-0.368c-0.628,0.159-1.284,0.236-2.006,0.236c-3.482,0-6.439-2.284-7.494-5.444
			c1.214,1.384,2.95,2.281,4.856,2.4c0.011,0,0.022,0.001,0.032,0.001c0.266,0,0.49-0.207,0.507-0.476
			c0.018-0.28-0.195-0.521-0.475-0.539c-2.507-0.157-4.676-1.878-5.397-4.283c-0.068-0.226-0.279-0.358-0.503-0.352
			c-0.225-0.007-0.437,0.126-0.505,0.352c-0.721,2.405-2.89,4.127-5.397,4.283c-0.28,0.017-0.493,0.259-0.475,0.539
			c0.017,0.269,0.24,0.476,0.507,0.476c0.011,0,0.021,0,0.032-0.001c1.906-0.119,3.642-1.016,4.856-2.4
			c-1.055,3.16-4.013,5.444-7.494,5.444c-0.722,0-1.378-0.077-2.006-0.236c-0.271-0.066-0.548,0.096-0.617,0.368
			c-0.069,0.272,0.096,0.548,0.368,0.617c0.711,0.18,1.448,0.267,2.255,0.267c1.779,0,3.434-0.533,4.828-1.441
			c-0.738,2.963-3.844,5.455-7.229,5.598c-0.013-0.001-0.024-0.008-0.037-0.008c-1.961,0-3.81,0.478-5.441,1.319
			c-0.015-0.231-0.022-0.463-0.022-0.694C47.656,68.019,51.028,63.701,55.856,62.502z M52.638,73.415
			c0.253,3.399-2.05,6.559-5.422,7.312c-0.041,0.009-0.074,0.031-0.11,0.049c-1.479,0.413-2.564,1.366-3.136,2.777
			c-0.105,0.26,0.02,0.556,0.28,0.662c0.063,0.025,0.127,0.037,0.191,0.037c0.201,0,0.391-0.12,0.471-0.317
			c0.478-1.178,1.365-1.929,2.639-2.233c0.03-0.007,0.054-0.026,0.081-0.038c0.247-0.062,0.489-0.135,0.726-0.219
			c-1.264,1.992-2.791,5.434-1.87,9.569c0.156,0.702,0.265,1.344,0.334,1.941c-2.823-2.018-4.544-5.304-4.544-8.806
			C42.279,78.379,46.885,73.667,52.638,73.415z M25.649,88.172c0,0,0-0.001,0-0.001c-0.465-1.318-0.422-2.617,0.124-3.755
			c0.492-1.025,1.363-1.837,2.475-2.326c2.281,4.047,5.671,8.811,9.902,13.115c0.099,0.101,0.231,0.152,0.362,0.152
			c0.128,0,0.257-0.049,0.356-0.146c0.2-0.196,0.203-0.518,0.006-0.718c-4.277-4.352-7.673-9.164-9.908-13.194
			c-0.002-0.006,0-0.013-0.003-0.019c-0.024-0.067-0.06-0.125-0.105-0.174c-1.099-2.004-1.909-3.808-2.383-5.25
			c0-0.001,0-0.002,0-0.002c-0.393-1.342-0.279-2.637,0.329-3.744c0.557-1.016,1.497-1.788,2.665-2.21
			c1.306,3.226,3.469,7.156,7.146,11.855c0.1,0.128,0.25,0.195,0.4,0.195c0.11,0,0.22-0.035,0.313-0.108
			c0.221-0.173,0.26-0.492,0.087-0.713c-6.716-8.582-8.264-14.502-8.833-18.224c0-0.003,0.001-0.005,0.001-0.008
			c-0.168-1.388,0.156-2.646,0.937-3.639c0.7-0.89,1.721-1.492,2.906-1.73c1.018,4.261,3.922,13.773,10.627,20.411
			c-1.133,1.805-1.79,3.933-1.79,6.212c0,4.101,2.157,7.933,5.643,10.079c0.057,3.438-1.521,5.021-3.661,6.705
			c-0.941,0.74-2.095,1.257-3.211,1.756c-0.707,0.316-1.418,0.635-2.089,1.01C31.565,97.343,26.983,91.559,25.649,88.172z
			 M40.449,103.618c1.173-0.525,2.385-1.067,3.425-1.885c2.814-2.213,5.027-4.564,3.607-10.939
			c-1.248-5.606,2.549-9.981,2.971-10.446c0.093,1.46,0.365,4.882,1.026,8.109c-0.391,0.708-1.69,3.43-1.23,7.601
			c0.595,5.395-1.006,8.297-5.191,9.41c-0.906,0.241-1.753,0.328-2.572,0.413c-2.529,0.261-4.743,0.492-7.15,4.824
			C35.103,106.025,37.593,104.895,40.449,103.618z M35.862,112.411c2.027-1.067,3.86-1.065,5.785-1.065
			c1.806-0.002,3.681,0.004,5.862-0.826c6.203-2.362,6.526-5.592,6.867-9.012c0.163-1.633,0.332-3.315,1.188-4.994
			c0.498,1.844,1.646,7.491-1.415,11.978c-2.627,3.851-7.693,5.949-15.051,6.244C37.984,114.006,36.904,113.232,35.862,112.411z
			 M64.074,122.188c-8.587,0-16.626-2.383-23.496-6.52c5.713-0.429,10.004-2.016,12.815-4.73c3.91,0.107,8.191,3.544,10.275,6.787
			c0.094,0.146,0.255,0.234,0.427,0.234c0.001,0,0.003,0,0.004,0c0.174-0.001,0.336-0.092,0.428-0.241
			c2.107-3.402,4.487-6.456,10.404-6.456c0.019,0,0.035-0.009,0.054-0.011c2.827,2.538,7.038,4.021,12.573,4.424
			C80.691,119.808,72.655,122.188,64.074,122.188z M89.044,114.74c-7.404-0.281-12.497-2.379-15.137-6.242
			c-3.073-4.498-1.905-10.184-1.412-12.007c0.866,1.686,1.035,3.376,1.198,5.017c0.341,3.42,0.663,6.651,6.867,9.012
			c2.18,0.83,4.047,0.823,5.862,0.826c1.939-0.002,3.787-0.003,5.834,1.09C91.22,113.25,90.148,114.017,89.044,114.74z
			 M92.733,110.705c-2.407-4.333-4.621-4.563-7.15-4.824c-0.819-0.084-1.666-0.172-2.572-0.413c-4.185-1.113-5.786-4.015-5.191-9.41
			c0.471-4.268-0.898-7.013-1.253-7.642c0.709-3.217,0.953-6.704,1.026-8.093c0.294,0.317,4.27,4.741,2.994,10.471
			c-1.42,6.376,0.794,8.726,3.607,10.939c1.039,0.818,2.252,1.36,3.425,1.885c0.765,0.342,1.504,0.674,2.173,1.065
			c0.035,0.024,0.068,0.05,0.107,0.065C91.667,105.813,92.9,107.347,92.733,110.705z"/>
		<path fill="#FFFFFF" d="M72.842,79.242c0.61-0.185,1.181-0.77,1.524-1.521c-0.539,0.451-1.222,1.264-2.169,1.112
			c0.599-0.148,0.927-0.925,1.095-1.414c-0.607,0.718-0.928,1.142-1.714,1.136c-0.051,0,0.557-0.491,0.645-1.176
			c-0.552,0.784-1.106,0.999-1.298,0.995c0.218-0.188,0.437-0.597,0.382-1.094c-0.276,0.751-0.512,0.923-0.889,0.967
			c-0.923-0.178-1.671,0.058-1.996,0.206c-1.078,0.491-1.627,1.159-1.866,1.557c0.85-0.817,1.684-1.138,1.663-1.095
			c-0.084,0.168-0.131,0.358-0.131,0.559c0,0.305,0.107,0.584,0.285,0.801c0.226,0.277,0.568,0.453,0.95,0.453
			c0.335,0,0.637-0.136,0.859-0.356c0.145-0.144,0.256-0.323,0.317-0.525c0.039-0.116,0.058-0.31,0.058-0.373
			c0-0.239-0.066-0.461-0.181-0.65c-0.029-0.048,1.115,0.038,1.855,1.046c-1.024,1.065-2.686,1.56-3.832,1.384
			c1.418,0.37,3.375-0.237,4.292-1.292c0.356-0.048,1.574-0.242,2.302-1.258C74.211,79.212,73.37,79.521,72.842,79.242z
			 M68.979,80.286c-0.143,0-0.259-0.116-0.259-0.259c0-0.143,0.116-0.259,0.259-0.259c0.143,0,0.259,0.116,0.259,0.259
			C69.238,80.17,69.122,80.286,68.979,80.286z M69.684,79.767c-0.246,0-0.446-0.2-0.446-0.446c0-0.246,0.199-0.446,0.446-0.446
			c0.246,0,0.446,0.2,0.446,0.446C70.13,79.568,69.93,79.767,69.684,79.767z"/>
		<path fill="#FFFFFF" d="M59.594,78.453c-0.325-0.148-1.073-0.384-1.996-0.206c-0.377-0.044-0.613-0.216-0.889-0.967
			c-0.055,0.497,0.164,0.907,0.382,1.094c-0.193,0.004-0.746-0.211-1.298-0.995c0.088,0.685,0.697,1.176,0.645,1.176
			c-0.786,0.006-1.106-0.418-1.714-1.136c0.168,0.489,0.497,1.265,1.095,1.414c-0.947,0.152-1.63-0.661-2.169-1.112
			c0.342,0.751,0.914,1.336,1.524,1.521c-0.528,0.279-1.369-0.03-2.153-0.538c0.729,1.016,1.946,1.211,2.302,1.258
			c0.916,1.055,2.874,1.662,4.292,1.292c-1.146,0.176-2.808-0.32-3.832-1.384c0.74-1.009,1.885-1.095,1.855-1.046
			c-0.114,0.189-0.181,0.412-0.181,0.65c0,0.063,0.019,0.257,0.058,0.373c0.062,0.202,0.172,0.381,0.317,0.525
			c0.222,0.22,0.525,0.356,0.859,0.356c0.382,0,0.723-0.176,0.95-0.453c0.178-0.217,0.285-0.496,0.285-0.801
			c0-0.201-0.048-0.391-0.131-0.559c-0.021-0.043,0.813,0.278,1.663,1.095C61.221,79.612,60.672,78.944,59.594,78.453z
			 M58.365,80.286c-0.143,0-0.259-0.116-0.259-0.259c0-0.143,0.116-0.259,0.259-0.259s0.259,0.116,0.259,0.259
			C58.625,80.17,58.509,80.286,58.365,80.286z M59.07,79.767c-0.246,0-0.446-0.2-0.446-0.446c0-0.246,0.2-0.446,0.446-0.446
			s0.446,0.2,0.446,0.446C59.516,79.568,59.316,79.767,59.07,79.767z"/>
	</g>
	<g>
		<g>
			<path fill="#FFFFFF" d="M64.345,29.874c-17.511,0-33.565,9.822-41.897,25.634c-0.106,0.201-0.066,0.448,0.099,0.605
				c0.165,0.158,0.414,0.186,0.609,0.07c14.187-8.368,28.045-12.61,41.188-12.61s27.001,4.243,41.188,12.61
				c0.08,0.047,0.169,0.071,0.258,0.071c0.128,0,0.254-0.048,0.351-0.141c0.165-0.157,0.205-0.404,0.099-0.605
				C97.909,39.696,81.855,29.874,64.345,29.874z M64.345,42.555c-12.835,0-26.323,3.979-40.117,11.831
				C32.6,39.848,47.81,30.892,64.345,30.892s31.745,8.956,40.117,23.495C90.668,46.534,77.18,42.555,64.345,42.555z"/>
			<path fill="#FFFFFF" d="M63.722,26.481h0.003c0,0.006-0.003,0.011-0.003,0.017c0,0.187,0.151,0.338,0.338,0.338
				c0.187,0,0.338-0.151,0.338-0.338c0-0.006-0.003-0.011-0.003-0.017h0.003l0.32-20.289c0-0.009,0.003-0.018,0.003-0.027
				c0-0.356-0.289-0.645-0.645-0.645s-0.645,0.289-0.645,0.645c0,0.011,0.003,0.021,0.003,0.032L63.722,26.481z"/>
			<path fill="#FFFFFF" d="M78.575,28.665c0.179,0.053,0.367-0.05,0.42-0.228c0.002-0.006,0-0.011,0.002-0.017l0.003,0.001
				l6.046-19.37c0.003-0.009,0.008-0.016,0.01-0.025c0.101-0.342-0.095-0.701-0.436-0.802c-0.342-0.101-0.701,0.095-0.802,0.437
				c-0.003,0.011-0.003,0.021-0.006,0.032L78.352,28.23l0.003,0.001c-0.002,0.006-0.006,0.009-0.008,0.015
				C78.293,28.424,78.396,28.612,78.575,28.665z"/>
			<path fill="#FFFFFF" d="M91.865,33.653c-0.004,0.005-0.009,0.007-0.012,0.012c-0.105,0.154-0.066,0.364,0.088,0.47
				c0.154,0.105,0.364,0.066,0.47-0.088c0.003-0.005,0.004-0.011,0.007-0.016l0.003,0.002l11.739-16.552
				c0.006-0.007,0.012-0.013,0.018-0.021c0.202-0.294,0.127-0.696-0.167-0.897c-0.294-0.202-0.696-0.127-0.897,0.167
				c-0.006,0.009-0.01,0.019-0.016,0.029L91.863,33.652L91.865,33.653z"/>
			<path fill="#FFFFFF" d="M102.731,44.468c-0.005,0.004-0.01,0.004-0.015,0.008c-0.142,0.121-0.158,0.335-0.037,0.476
				c0.121,0.142,0.335,0.158,0.476,0.037c0.004-0.004,0.006-0.009,0.01-0.013l0.002,0.002l15.62-12.953
				c0.007-0.006,0.015-0.01,0.023-0.016c0.271-0.232,0.302-0.639,0.071-0.91c-0.232-0.271-0.639-0.302-0.91-0.071
				c-0.008,0.007-0.014,0.016-0.022,0.023l-15.22,13.413L102.731,44.468z"/>
			<path fill="#FFFFFF" d="M71.43,27.261c0.172,0.026,0.327-0.084,0.372-0.248l0.007,0.001l2.305-13.092
				c0.002-0.01,0.006-0.019,0.008-0.03c0.053-0.352-0.189-0.681-0.542-0.735c-0.352-0.053-0.681,0.189-0.735,0.542
				c-0.002,0.012-0.001,0.023-0.002,0.035l-1.702,13.178l0.007,0.001C71.142,27.083,71.258,27.235,71.43,27.261z"/>
			<path fill="#FFFFFF" d="M85.446,30.978c0.155,0.078,0.337,0.023,0.431-0.119l0.006,0.003l6.295-11.708
				c0.005-0.009,0.012-0.017,0.017-0.026c0.161-0.318,0.034-0.706-0.284-0.868c-0.318-0.161-0.706-0.034-0.868,0.284
				c-0.005,0.011-0.008,0.022-0.013,0.033l-5.749,11.98l0.007,0.003C85.228,30.719,85.291,30.9,85.446,30.978z"/>
			<path fill="#FFFFFF" d="M97.494,38.583c-0.095,0.14-0.077,0.331,0.055,0.443c0.132,0.113,0.322,0.102,0.447-0.014l0.005,0.004
				l8.889-9.884c0.007-0.008,0.015-0.013,0.022-0.021c0.232-0.271,0.201-0.678-0.07-0.91c-0.271-0.232-0.678-0.201-0.91,0.07
				c-0.008,0.009-0.013,0.019-0.02,0.029l-8.423,10.277L97.494,38.583z"/>
			<path fill="#FFFFFF" d="M119.072,44.02c-0.178-0.309-0.572-0.415-0.881-0.238c-0.01,0.006-0.019,0.014-0.029,0.021l-11.371,6.875
				l0.004,0.006c-0.136,0.101-0.183,0.286-0.096,0.436c0.086,0.15,0.27,0.204,0.425,0.136l0.003,0.006l11.679-6.348
				c0.009-0.005,0.019-0.007,0.028-0.013C119.144,44.724,119.25,44.329,119.072,44.02z"/>
			<path fill="#FFFFFF" d="M56.337,27.014l0.007-0.001c0.044,0.164,0.2,0.274,0.372,0.248c0.171-0.026,0.288-0.178,0.282-0.347
				l0.007-0.001l-1.702-13.178c-0.001-0.012,0-0.023-0.002-0.035c-0.053-0.352-0.382-0.595-0.735-0.542
				c-0.353,0.053-0.595,0.382-0.542,0.735c0.002,0.01,0.006,0.02,0.008,0.03L56.337,27.014z"/>
			<path fill="#FFFFFF" d="M43.103,9.05l6.046,19.37l0.003-0.001c0.001,0.006,0,0.011,0.001,0.017
				c0.053,0.179,0.241,0.281,0.42,0.228c0.179-0.053,0.281-0.241,0.228-0.42c-0.002-0.006-0.006-0.01-0.008-0.015l0.003-0.001
				L44.337,8.691c-0.003-0.011-0.003-0.021-0.006-0.032c-0.101-0.342-0.46-0.537-0.802-0.437c-0.342,0.101-0.537,0.46-0.437,0.802
				C43.096,9.033,43.1,9.041,43.103,9.05z"/>
			<path fill="#FFFFFF" d="M23.989,17.481l11.739,16.552l0.003-0.002c0.003,0.005,0.003,0.011,0.007,0.016
				c0.105,0.154,0.316,0.193,0.47,0.088c0.154-0.106,0.193-0.316,0.088-0.47c-0.003-0.005-0.009-0.007-0.012-0.012l0.002-0.002
				L25.052,16.759c-0.006-0.009-0.009-0.019-0.016-0.029c-0.202-0.294-0.603-0.369-0.897-0.167
				c-0.294,0.202-0.369,0.603-0.167,0.897C23.977,17.468,23.984,17.474,23.989,17.481z"/>
			<path fill="#FFFFFF" d="M9.359,32.026l15.62,12.953l0.002-0.002c0.004,0.004,0.006,0.01,0.01,0.013
				c0.142,0.121,0.355,0.105,0.476-0.037c0.121-0.142,0.105-0.355-0.037-0.476c-0.004-0.004-0.01-0.005-0.015-0.008l0.002-0.002
				l-15.22-13.413c-0.008-0.008-0.014-0.016-0.022-0.023c-0.271-0.232-0.678-0.2-0.91,0.071c-0.232,0.271-0.2,0.678,0.071,0.91
				C9.344,32.017,9.352,32.021,9.359,32.026z"/>
			<path fill="#FFFFFF" d="M35.971,19.155l6.295,11.708l0.006-0.003c0.093,0.141,0.276,0.197,0.431,0.119
				c0.155-0.078,0.218-0.259,0.159-0.418l0.007-0.003l-5.749-11.98c-0.005-0.011-0.007-0.022-0.013-0.033
				c-0.161-0.318-0.55-0.445-0.868-0.284c-0.318,0.161-0.445,0.55-0.284,0.868C35.959,19.138,35.965,19.146,35.971,19.155z"/>
			<path fill="#FFFFFF" d="M21.257,29.133l8.889,9.884l0.005-0.004c0.124,0.115,0.315,0.126,0.447,0.014
				c0.132-0.113,0.15-0.303,0.055-0.443l0.006-0.005l-8.423-10.277c-0.007-0.009-0.012-0.02-0.02-0.029
				c-0.232-0.271-0.639-0.302-0.91-0.07c-0.271,0.232-0.302,0.639-0.07,0.91C21.242,29.12,21.25,29.126,21.257,29.133z"/>
			<path fill="#FFFFFF" d="M21.357,50.678L9.985,43.803c-0.01-0.006-0.018-0.015-0.029-0.021c-0.309-0.178-0.704-0.071-0.881,0.238
				c-0.178,0.309-0.071,0.704,0.238,0.881c0.009,0.005,0.019,0.008,0.028,0.013l11.679,6.348l0.003-0.006
				c0.155,0.067,0.339,0.014,0.425-0.136c0.086-0.15,0.04-0.336-0.096-0.436L21.357,50.678z"/>
		</g>
		<path fill="#FFFFFF" d="M63.722,26.481h0.003c0,0.006-0.003,0.011-0.003,0.017c0,0.187,0.151,0.338,0.338,0.338
			c0.187,0,0.338-0.151,0.338-0.338c0-0.006-0.003-0.011-0.003-0.017h0.003l0.32-20.289c0-0.009,0.003-0.018,0.003-0.027
			c0-0.356-0.289-0.645-0.645-0.645s-0.645,0.289-0.645,0.645c0,0.011,0.003,0.021,0.003,0.032L63.722,26.481z"/>
		<path fill="#FFFFFF" d="M78.575,28.665c0.179,0.053,0.367-0.05,0.42-0.228c0.002-0.006,0-0.011,0.002-0.017l0.003,0.001
			l6.046-19.37c0.003-0.009,0.008-0.016,0.01-0.025c0.101-0.342-0.095-0.701-0.436-0.802c-0.342-0.101-0.701,0.095-0.802,0.437
			c-0.003,0.011-0.003,0.021-0.006,0.032L78.352,28.23l0.003,0.001c-0.002,0.006-0.006,0.009-0.008,0.015
			C78.293,28.424,78.396,28.612,78.575,28.665z"/>
		<path fill="#FFFFFF" d="M91.865,33.653c-0.004,0.005-0.009,0.007-0.012,0.012c-0.105,0.154-0.066,0.364,0.088,0.47
			c0.154,0.105,0.364,0.066,0.47-0.088c0.003-0.005,0.004-0.011,0.007-0.016l0.003,0.002l11.739-16.552
			c0.006-0.007,0.012-0.013,0.018-0.021c0.202-0.294,0.127-0.696-0.167-0.897c-0.294-0.202-0.696-0.127-0.897,0.167
			c-0.006,0.009-0.01,0.019-0.016,0.029L91.863,33.652L91.865,33.653z"/>
		<path fill="#FFFFFF" d="M102.731,44.468c-0.005,0.004-0.01,0.004-0.015,0.008c-0.142,0.121-0.158,0.335-0.037,0.476
			c0.121,0.142,0.335,0.158,0.476,0.037c0.004-0.004,0.006-0.009,0.01-0.013l0.002,0.002l15.62-12.953
			c0.007-0.006,0.015-0.01,0.023-0.016c0.271-0.232,0.302-0.639,0.071-0.91c-0.232-0.271-0.639-0.302-0.91-0.071
			c-0.008,0.007-0.014,0.016-0.022,0.023l-15.22,13.413L102.731,44.468z"/>
		<path fill="#FFFFFF" d="M71.43,27.261c0.172,0.026,0.327-0.084,0.372-0.248l0.007,0.001l2.305-13.092
			c0.002-0.01,0.006-0.019,0.008-0.03c0.053-0.352-0.189-0.681-0.542-0.735c-0.352-0.053-0.681,0.189-0.735,0.542
			c-0.002,0.012-0.001,0.023-0.002,0.035l-1.702,13.178l0.007,0.001C71.142,27.083,71.258,27.235,71.43,27.261z"/>
		<path fill="#FFFFFF" d="M85.446,30.978c0.155,0.078,0.337,0.023,0.431-0.119l0.006,0.003l6.295-11.708
			c0.005-0.009,0.012-0.017,0.017-0.026c0.161-0.318,0.034-0.706-0.284-0.868c-0.318-0.161-0.706-0.034-0.868,0.284
			c-0.005,0.011-0.008,0.022-0.013,0.033l-5.749,11.98l0.007,0.003C85.228,30.719,85.291,30.9,85.446,30.978z"/>
		<path fill="#FFFFFF" d="M97.494,38.583c-0.095,0.14-0.077,0.331,0.055,0.443c0.132,0.113,0.322,0.102,0.447-0.014l0.005,0.004
			l8.889-9.884c0.007-0.008,0.015-0.013,0.022-0.021c0.232-0.271,0.201-0.678-0.07-0.91c-0.271-0.232-0.678-0.201-0.91,0.07
			c-0.008,0.009-0.013,0.019-0.02,0.029l-8.423,10.277L97.494,38.583z"/>
		<path fill="#FFFFFF" d="M119.072,44.02c-0.178-0.309-0.572-0.415-0.881-0.238c-0.01,0.006-0.019,0.014-0.029,0.021l-11.371,6.875
			l0.004,0.006c-0.136,0.101-0.183,0.286-0.096,0.436c0.086,0.15,0.27,0.204,0.425,0.136l0.003,0.006l11.679-6.348
			c0.009-0.005,0.019-0.007,0.028-0.013C119.144,44.724,119.25,44.329,119.072,44.02z"/>
		<path fill="#FFFFFF" d="M56.337,27.014l0.007-0.001c0.044,0.164,0.2,0.274,0.372,0.248c0.171-0.026,0.288-0.178,0.282-0.347
			l0.007-0.001l-1.702-13.178c-0.001-0.012,0-0.023-0.002-0.035c-0.053-0.352-0.382-0.595-0.735-0.542
			c-0.353,0.053-0.595,0.382-0.542,0.735c0.002,0.01,0.006,0.02,0.008,0.03L56.337,27.014z"/>
		<path fill="#FFFFFF" d="M43.103,9.05l6.046,19.37l0.003-0.001c0.001,0.006,0,0.011,0.001,0.017
			c0.053,0.179,0.241,0.281,0.42,0.228c0.179-0.053,0.281-0.241,0.228-0.42c-0.002-0.006-0.006-0.01-0.008-0.015l0.003-0.001
			L44.337,8.691c-0.003-0.011-0.003-0.021-0.006-0.032c-0.101-0.342-0.46-0.537-0.802-0.437c-0.342,0.101-0.537,0.46-0.437,0.802
			C43.096,9.033,43.1,9.041,43.103,9.05z"/>
		<path fill="#FFFFFF" d="M23.989,17.481l11.739,16.552l0.003-0.002c0.003,0.005,0.003,0.011,0.007,0.016
			c0.105,0.154,0.316,0.193,0.47,0.088c0.154-0.106,0.193-0.316,0.088-0.47c-0.003-0.005-0.009-0.007-0.012-0.012l0.002-0.002
			L25.052,16.759c-0.006-0.009-0.009-0.019-0.016-0.029c-0.202-0.294-0.603-0.369-0.897-0.167c-0.294,0.202-0.369,0.603-0.167,0.897
			C23.977,17.468,23.984,17.474,23.989,17.481z"/>
		<path fill="#FFFFFF" d="M9.359,32.026l15.62,12.953l0.002-0.002c0.004,0.004,0.006,0.01,0.01,0.013
			c0.142,0.121,0.355,0.105,0.476-0.037c0.121-0.142,0.105-0.355-0.037-0.476c-0.004-0.004-0.01-0.005-0.015-0.008l0.002-0.002
			l-15.22-13.413c-0.008-0.008-0.014-0.016-0.022-0.023c-0.271-0.232-0.678-0.2-0.91,0.071c-0.232,0.271-0.2,0.678,0.071,0.91
			C9.344,32.017,9.352,32.021,9.359,32.026z"/>
		<path fill="#FFFFFF" d="M35.971,19.155l6.295,11.708l0.006-0.003c0.093,0.141,0.276,0.197,0.431,0.119
			c0.155-0.078,0.218-0.259,0.159-0.418l0.007-0.003l-5.749-11.98c-0.005-0.011-0.007-0.022-0.013-0.033
			c-0.161-0.318-0.55-0.445-0.868-0.284c-0.318,0.161-0.445,0.55-0.284,0.868C35.959,19.138,35.965,19.146,35.971,19.155z"/>
		<path fill="#FFFFFF" d="M21.257,29.133l8.889,9.884l0.005-0.004c0.124,0.115,0.315,0.126,0.447,0.014
			c0.132-0.113,0.15-0.303,0.055-0.443l0.006-0.005l-8.423-10.277c-0.007-0.009-0.012-0.02-0.02-0.029
			c-0.232-0.271-0.639-0.302-0.91-0.07c-0.271,0.232-0.302,0.639-0.07,0.91C21.242,29.12,21.25,29.126,21.257,29.133z"/>
		<path fill="#FFFFFF" d="M21.357,50.678L9.985,43.803c-0.01-0.006-0.018-0.015-0.029-0.021c-0.309-0.178-0.704-0.071-0.881,0.238
			c-0.178,0.309-0.071,0.704,0.238,0.881c0.009,0.005,0.019,0.008,0.028,0.013l11.679,6.348l0.003-0.006
			c0.155,0.067,0.339,0.014,0.425-0.136c0.086-0.15,0.04-0.336-0.096-0.436L21.357,50.678z"/>
	</g>
</g>
</svg>
