<?xml version="1.0" encoding="utf-8"?>
<!-- Generator: Adobe Illustrator 17.0.0, SVG Export Plug-In . SVG Version: 6.00 Build 0)  -->
<!DOCTYPE svg PUBLIC "-//W3C//DTD SVG 1.1//EN" "http://www.w3.org/Graphics/SVG/1.1/DTD/svg11.dtd">
<svg version="1.1" id="Camada_1" xmlns="http://www.w3.org/2000/svg" xmlns:xlink="http://www.w3.org/1999/xlink" x="0px" y="0px"
	 width="256.849px" height="128.767px" viewBox="0 0 256.849 128.767" enable-background="new 0 0 256.849 128.767"
	 xml:space="preserve">
<g>
	<g>
		<path fill="#FFFFFF" d="M189.589,45.379c-0.401-0.674-0.917-1.018-1.735-1.018c-0.86,0-1.806,0.588-1.806,1.533
			c0,0.846,0.831,1.291,1.505,1.549l0.774,0.301c1.533,0.602,2.68,1.448,2.68,3.254c0,1.964-1.519,3.369-3.454,3.369
			c-1.749,0-3.111-1.29-3.34-3.024l1.362-0.287c-0.015,1.19,0.931,2.05,2.092,2.05c1.162,0,1.993-0.974,1.993-2.107
			c0-1.161-0.931-1.663-1.864-2.05l-0.745-0.316c-1.233-0.53-2.351-1.233-2.351-2.738c0-1.749,1.548-2.795,3.182-2.795
			c1.204,0,2.193,0.588,2.781,1.634L189.589,45.379z"/>
		<path fill="#FFFFFF" d="M198.258,54.137h-1.347v-9.576h-2.566v-1.233h6.48v1.233h-2.567V54.137z"/>
		<path fill="#FFFFFF" d="M205.911,43.329v6.379c0,1.763,0.53,3.397,2.609,3.397c2.078,0,2.609-1.634,2.609-3.397v-6.379h1.347
			v6.838c0,2.379-1.476,4.2-3.956,4.2c-2.48,0-3.957-1.821-3.957-4.2v-6.838H205.911z"/>
		<path fill="#FFFFFF" d="M217.089,43.329h2.236c3.311,0,6.064,1.749,6.064,5.347c0,3.685-2.695,5.462-6.107,5.462h-2.193V43.329z
			 M218.436,52.904h0.474c2.752,0,5.132-1.032,5.132-4.171c0-3.154-2.379-4.171-5.132-4.171h-0.474V52.904z"/>
		<path fill="#FFFFFF" d="M230.904,54.137h-1.347V43.329h1.347V54.137z"/>
		<path fill="#FFFFFF" d="M246.356,48.733c0,3.211-2.538,5.634-5.663,5.634c-3.125,0-5.663-2.423-5.663-5.634
			c0-3.096,2.567-5.634,5.663-5.634C243.79,43.099,246.356,45.637,246.356,48.733z M245.008,48.733c0-2.38-1.777-4.372-4.315-4.372
			c-2.537,0-4.315,1.992-4.315,4.372c0,2.465,1.979,4.372,4.315,4.372C243.03,53.105,245.008,51.199,245.008,48.733z"/>
	</g>
	<g>
		<path fill="#FFFFFF" d="M130.289,108.264h1.642c1.815,0,3.337,0.662,3.337,2.7c0,0.808-0.304,1.497-0.979,1.948
			c1.191,0.291,1.893,1.364,1.893,2.556c0,1.986-1.603,2.78-3.576,2.78h-2.317V108.264z M131.401,112.659h0.424
			c1.258,0,2.331-0.145,2.331-1.695c0-1.509-0.953-1.668-2.317-1.668h-0.437V112.659z M131.401,117.215h1.112
			c1.245,0,2.556-0.304,2.556-1.827c0-1.55-1.483-1.775-2.702-1.775h-0.967V117.215z"/>
		<path fill="#FFFFFF" d="M139.666,115.362c0.014,1.152,0.834,2.078,2.039,2.078c0.902,0,1.483-0.543,1.895-1.285l0.901,0.517
			c-0.596,1.112-1.603,1.748-2.874,1.748c-1.854,0-3.045-1.418-3.045-3.205c0-1.84,1.072-3.363,3.018-3.363
			c2.001,0,3.06,1.654,2.954,3.51H139.666z M143.44,114.46c-0.147-0.899-0.901-1.629-1.828-1.629c-0.913,0-1.76,0.729-1.893,1.629
			H143.44z"/>
		<path fill="#FFFFFF" d="M148.367,118.249h-1.059v-10.926h1.059V118.249z"/>
		<path fill="#FFFFFF" d="M152.197,115.362c0.014,1.152,0.834,2.078,2.039,2.078c0.902,0,1.483-0.543,1.895-1.285l0.901,0.517
			c-0.596,1.112-1.603,1.748-2.874,1.748c-1.854,0-3.045-1.418-3.045-3.205c0-1.84,1.072-3.363,3.018-3.363
			c2.001,0,3.06,1.654,2.954,3.51H152.197z M155.971,114.46c-0.147-0.899-0.901-1.629-1.828-1.629c-0.913,0-1.76,0.729-1.893,1.629
			H155.971z"/>
		<path fill="#FFFFFF" d="M165.427,117.269v0.979h-6.437l4.49-5.244h-3.655v-0.981h5.787l-4.477,5.245H165.427z"/>
		<path fill="#FFFFFF" d="M173.745,118.249h-1.059v-0.861h-0.027c-0.543,0.689-1.271,1.034-2.145,1.034
			c-1.828,0-2.98-1.55-2.98-3.271c0-1.775,1.126-3.298,2.992-3.298c0.848,0,1.616,0.397,2.132,1.059h0.027v-0.888h1.059V118.249z
			 M168.619,115.07c0,1.218,0.716,2.37,2.04,2.37c1.364,0,2.079-1.099,2.079-2.357c0-1.245-0.781-2.252-2.093-2.252
			C169.415,112.832,168.619,113.905,168.619,115.07z"/>
		<path fill="#FFFFFF" d="M182.965,115.362c0.014,1.152,0.834,2.078,2.039,2.078c0.902,0,1.483-0.543,1.895-1.285l0.901,0.517
			c-0.596,1.112-1.603,1.748-2.874,1.748c-1.854,0-3.045-1.418-3.045-3.205c0-1.84,1.072-3.363,3.018-3.363
			c2.001,0,3.06,1.654,2.954,3.51H182.965z M186.739,114.46c-0.147-0.899-0.901-1.629-1.828-1.629c-0.913,0-1.76,0.729-1.893,1.629
			H186.739z"/>
		<path fill="#FFFFFF" d="M196.039,108.264h5.178v1.032h-4.065v2.966h3.946v1.032h-3.946v3.92h4.065v1.034h-5.178V108.264z"/>
		<path fill="#FFFFFF" d="M206.953,113.468c-0.147-0.33-0.464-0.636-0.848-0.636c-0.372,0-0.769,0.292-0.769,0.689
			c0,0.57,0.714,0.782,1.444,1.087c0.728,0.304,1.444,0.742,1.444,1.787c0,1.179-0.953,2.026-2.107,2.026
			c-1.046,0-1.868-0.596-2.198-1.576l0.94-0.398c0.265,0.583,0.569,0.993,1.271,0.993c0.569,0,1.006-0.383,1.006-0.953
			c0-1.391-2.808-0.913-2.808-2.874c0-1.046,0.848-1.76,1.854-1.76c0.714,0,1.377,0.503,1.656,1.152L206.953,113.468z"/>
		<path fill="#FFFFFF" d="M212.158,118.249h-1.059v-5.244h-0.649v-0.981h0.649v-2.237h1.059v2.237h1.112v0.981h-1.112V118.249z"/>
		<path fill="#FFFFFF" d="M216.078,115.362c0.014,1.152,0.834,2.078,2.039,2.078c0.902,0,1.483-0.543,1.895-1.285l0.901,0.517
			c-0.596,1.112-1.603,1.748-2.874,1.748c-1.854,0-3.045-1.418-3.045-3.205c0-1.84,1.072-3.363,3.018-3.363
			c2.001,0,3.06,1.654,2.954,3.51H216.078z M219.853,114.46c-0.147-0.899-0.901-1.629-1.828-1.629c-0.913,0-1.76,0.729-1.893,1.629
			H219.853z M219.866,108.9l-2.026,2.039l-0.663-0.371l1.576-2.172L219.866,108.9z"/>
		<path fill="#FFFFFF" d="M224.86,118.249h-1.059v-5.244h-0.649v-0.981h0.649v-2.237h1.059v2.237h1.112v0.981h-1.112V118.249z"/>
		<path fill="#FFFFFF" d="M229.734,109.681c0,0.424-0.345,0.754-0.755,0.754c-0.41,0-0.755-0.33-0.755-0.754
			c0-0.411,0.345-0.755,0.755-0.755C229.389,108.926,229.734,109.269,229.734,109.681z M229.508,118.249h-1.059v-6.225h1.059
			V118.249z"/>
		<path fill="#FFFFFF" d="M237.667,113.879h-0.027c-0.49-0.623-1.099-1.047-1.933-1.047c-1.285,0-2.199,1.059-2.199,2.305
			c0,1.231,0.848,2.304,2.146,2.304c0.887,0,1.509-0.397,2.025-1.073h0.027v1.418c-0.609,0.41-1.232,0.636-1.974,0.636
			c-1.88,0-3.31-1.404-3.31-3.284c0-1.854,1.497-3.284,3.324-3.284c0.675,0,1.364,0.225,1.921,0.622V113.879z"/>
		<path fill="#FFFFFF" d="M246.356,118.249h-1.059v-0.861h-0.027c-0.543,0.689-1.271,1.034-2.145,1.034
			c-1.828,0-2.98-1.55-2.98-3.271c0-1.775,1.126-3.298,2.992-3.298c0.848,0,1.616,0.397,2.132,1.059h0.027v-0.888h1.059V118.249z
			 M241.23,115.07c0,1.218,0.716,2.37,2.04,2.37c1.364,0,2.079-1.099,2.079-2.357c0-1.245-0.781-2.252-2.093-2.252
			C242.026,112.832,241.23,113.905,241.23,115.07z"/>
	</g>
	<g>
		<path fill="#FFFFFF" d="M145.512,46.281v21.594h12.006c3.116,0,5.197-0.47,6.245-1.41c1.397-1.235,2.176-3.411,2.337-6.527h1.491
			v19.016h-1.491c-0.376-2.659-0.752-4.365-1.128-5.117c-0.483-0.94-1.276-1.679-2.377-2.216s-2.793-0.806-5.076-0.806h-12.006
			v15.511c0,2.417,0.107,3.888,0.322,4.412s0.591,0.94,1.128,1.249c0.537,0.309,1.558,0.463,3.062,0.463h9.266
			c3.089,0,5.331-0.215,6.728-0.645c1.397-0.43,2.74-1.276,4.029-2.538c1.665-1.665,3.371-4.177,5.117-7.534h1.612l-4.714,16.195
			H129.96v-1.491h1.934c1.289,0,2.511-0.309,3.666-0.927c0.859-0.43,1.444-1.074,1.753-1.934c0.309-0.859,0.463-2.619,0.463-5.278
			V52.808c0-3.465-0.349-5.6-1.047-6.406c-0.967-1.074-2.578-1.612-4.835-1.612h-1.934V43.3h42.101l0.604,11.965h-1.571
			c-0.564-2.874-1.188-4.848-1.873-5.922c-0.685-1.074-1.699-1.894-3.042-2.458c-1.074-0.403-2.968-0.604-5.681-0.604H145.512z"/>
		<path fill="#FFFFFF" d="M243.488,59.823v12.605h-1.333c-1.023-3.959-2.336-6.653-3.939-8.08s-3.643-2.141-6.121-2.141
			c-1.885,0-3.407,0.498-4.565,1.495s-1.737,2.101-1.737,3.313c0,1.508,0.431,2.801,1.293,3.878c0.835,1.104,2.532,2.276,5.09,3.515
			l5.898,2.868c5.468,2.666,8.201,6.181,8.201,10.545c0,3.367-1.273,6.08-3.818,8.141c-2.545,2.06-5.393,3.091-8.545,3.091
			c-2.262,0-4.848-0.404-7.757-1.212c-0.889-0.269-1.616-0.404-2.182-0.404c-0.619,0-1.104,0.35-1.454,1.05h-1.333V85.276h1.333
			c0.754,3.771,2.195,6.612,4.323,8.524c2.128,1.912,4.511,2.868,7.151,2.868c1.858,0,3.373-0.545,4.545-1.636
			c1.172-1.091,1.757-2.404,1.757-3.939c0-1.858-0.653-3.421-1.959-4.686c-1.306-1.266-3.912-2.868-7.817-4.808
			c-3.905-1.939-6.464-3.69-7.676-5.252c-1.212-1.535-1.818-3.474-1.818-5.818c0-3.044,1.044-5.589,3.131-7.636
			c2.087-2.047,4.787-3.07,8.1-3.07c1.454,0,3.219,0.31,5.292,0.929c1.374,0.404,2.289,0.606,2.747,0.606
			c0.431,0,0.768-0.094,1.01-0.283c0.242-0.189,0.525-0.606,0.848-1.252H243.488z"/>
		<path fill="#FFFFFF" d="M198.264,59.898c-9.797,0-17.74,8.782-17.74,19.614s7.942,19.614,17.74,19.614
			c9.798,0,17.74-8.782,17.74-19.614S208.062,59.898,198.264,59.898z M198.264,96.546c-5.906,0-10.693-7.626-10.693-17.034
			c0-9.407,4.787-17.034,10.693-17.034c5.906,0,10.693,7.626,10.693,17.034C208.957,88.92,204.17,96.546,198.264,96.546z"/>
	</g>
</g>
<g>
	<path fill="#FFFFFF" d="M55.982,27.544l0.007-0.001c0.044,0.164,0.2,0.274,0.372,0.248c0.172-0.026,0.288-0.178,0.282-0.347
		l0.007-0.001l-1.701-13.178c-0.001-0.012,0-0.023-0.002-0.035c-0.053-0.352-0.382-0.595-0.735-0.542
		c-0.352,0.053-0.595,0.382-0.542,0.735c0.002,0.01,0.006,0.02,0.008,0.03L55.982,27.544z"/>
	<path fill="#FFFFFF" d="M63.367,27.011h0.003c0,0.006-0.003,0.011-0.003,0.017c0,0.187,0.151,0.338,0.338,0.338
		c0.187,0,0.338-0.151,0.338-0.338c0-0.006-0.003-0.011-0.003-0.017h0.003l0.32-20.289c0-0.009,0.003-0.018,0.003-0.027
		c0-0.356-0.289-0.645-0.645-0.645c-0.357,0-0.645,0.289-0.645,0.645c0,0.011,0.003,0.021,0.003,0.032L63.367,27.011z"/>
	<path fill="#FFFFFF" d="M42.748,9.58l6.046,19.37l0.003-0.001c0.001,0.006,0,0.011,0.001,0.017
		c0.053,0.179,0.241,0.281,0.419,0.228s0.281-0.241,0.228-0.419c-0.002-0.006-0.006-0.01-0.008-0.015l0.003-0.001L43.982,9.222
		C43.979,9.211,43.979,9.2,43.976,9.19c-0.101-0.342-0.46-0.537-0.802-0.437c-0.342,0.101-0.537,0.46-0.437,0.802
		C42.74,9.564,42.745,9.571,42.748,9.58z"/>
	<path fill="#FFFFFF" d="M23.634,18.012l11.739,16.552l0.003-0.002c0.003,0.005,0.003,0.011,0.007,0.016
		c0.105,0.154,0.316,0.193,0.47,0.088c0.154-0.106,0.193-0.316,0.088-0.47c-0.003-0.005-0.009-0.007-0.012-0.012l0.002-0.002
		L24.697,17.289c-0.006-0.009-0.009-0.019-0.016-0.029c-0.202-0.294-0.603-0.369-0.897-0.167c-0.294,0.202-0.369,0.603-0.167,0.897
		C23.622,17.998,23.629,18.004,23.634,18.012z"/>
	<path fill="#FFFFFF" d="M35.616,19.685l6.295,11.708l0.006-0.003c0.093,0.141,0.276,0.197,0.431,0.119
		c0.155-0.078,0.218-0.259,0.159-0.418l0.007-0.003l-5.749-11.98c-0.005-0.011-0.007-0.022-0.013-0.033
		c-0.161-0.318-0.55-0.445-0.868-0.284c-0.318,0.161-0.445,0.55-0.284,0.868C35.604,19.668,35.61,19.676,35.616,19.685z"/>
	<path fill="#FFFFFF" d="M97.139,39.113c-0.095,0.14-0.077,0.331,0.055,0.443c0.132,0.113,0.323,0.102,0.447-0.013l0.005,0.004
		l8.889-9.884c0.007-0.008,0.015-0.013,0.022-0.021c0.232-0.271,0.201-0.678-0.07-0.91c-0.271-0.232-0.678-0.201-0.91,0.07
		c-0.008,0.009-0.013,0.02-0.02,0.029l-8.423,10.277L97.139,39.113z"/>
	<path fill="#FFFFFF" d="M91.51,34.183c-0.004,0.005-0.009,0.007-0.012,0.012c-0.105,0.154-0.066,0.364,0.088,0.47
		c0.154,0.105,0.364,0.066,0.47-0.088c0.003-0.005,0.004-0.011,0.007-0.016l0.003,0.002l11.739-16.552
		c0.006-0.007,0.012-0.013,0.018-0.021c0.202-0.294,0.127-0.696-0.167-0.897c-0.294-0.202-0.696-0.127-0.897,0.167
		c-0.006,0.009-0.01,0.019-0.016,0.029L91.508,34.182L91.51,34.183z"/>
	<path fill="#FFFFFF" d="M71.075,27.791c0.172,0.026,0.327-0.084,0.372-0.248l0.007,0.001l2.305-13.092
		c0.002-0.01,0.006-0.019,0.008-0.03c0.053-0.352-0.189-0.681-0.542-0.735c-0.352-0.053-0.681,0.189-0.735,0.542
		c-0.002,0.012-0.001,0.023-0.002,0.035l-1.702,13.178l0.007,0.001C70.787,27.613,70.903,27.765,71.075,27.791z"/>
	<path fill="#FFFFFF" d="M78.22,29.195c0.179,0.053,0.367-0.049,0.419-0.228c0.002-0.006,0-0.011,0.002-0.017l0.003,0.001
		l6.046-19.37c0.003-0.009,0.008-0.016,0.01-0.025c0.101-0.342-0.095-0.701-0.436-0.802c-0.342-0.101-0.701,0.095-0.802,0.437
		c-0.003,0.011-0.003,0.021-0.006,0.032L77.997,28.76l0.003,0.001c-0.002,0.006-0.006,0.009-0.008,0.015
		C77.938,28.955,78.041,29.142,78.22,29.195z"/>
	<path fill="#FFFFFF" d="M85.09,31.509c0.155,0.078,0.337,0.023,0.431-0.119l0.006,0.003l6.295-11.708
		c0.005-0.009,0.012-0.017,0.017-0.026c0.161-0.318,0.034-0.706-0.284-0.868s-0.706-0.034-0.868,0.284
		c-0.005,0.011-0.008,0.022-0.013,0.033l-5.749,11.98l0.007,0.003C84.873,31.25,84.936,31.43,85.09,31.509z"/>
	<path fill="#FFFFFF" d="M20.668,51.787c0.155,0.067,0.339,0.014,0.425-0.136c0.086-0.15,0.04-0.336-0.096-0.436l0.004-0.006
		L9.63,44.333c-0.01-0.006-0.018-0.015-0.029-0.021c-0.309-0.178-0.704-0.071-0.881,0.238s-0.071,0.704,0.238,0.881
		c0.009,0.005,0.019,0.008,0.028,0.013l11.679,6.349L20.668,51.787z"/>
	<path fill="#FFFFFF" d="M118.717,44.55c-0.178-0.309-0.572-0.415-0.881-0.238c-0.01,0.006-0.019,0.014-0.029,0.021l-11.371,6.875
		l0.004,0.006c-0.136,0.101-0.183,0.286-0.096,0.436c0.086,0.15,0.27,0.204,0.425,0.136l0.003,0.006l11.679-6.349
		c0.009-0.005,0.019-0.007,0.028-0.013C118.789,45.254,118.895,44.859,118.717,44.55z"/>
	<path fill="#FFFFFF" d="M20.902,29.664l8.889,9.884l0.005-0.004c0.124,0.115,0.315,0.126,0.447,0.013
		c0.132-0.113,0.15-0.303,0.055-0.443l0.006-0.005L21.88,28.831c-0.007-0.009-0.012-0.02-0.02-0.029
		c-0.232-0.271-0.639-0.302-0.91-0.07c-0.271,0.232-0.302,0.639-0.07,0.91C20.887,29.65,20.895,29.656,20.902,29.664z"/>
	<path fill="#FFFFFF" d="M9.004,32.556l15.62,12.953l0.002-0.002c0.004,0.004,0.006,0.01,0.01,0.013
		c0.142,0.121,0.355,0.105,0.476-0.037s0.105-0.355-0.037-0.476c-0.005-0.004-0.01-0.005-0.015-0.008l0.002-0.002L9.844,31.584
		c-0.008-0.008-0.014-0.016-0.022-0.023c-0.271-0.232-0.678-0.2-0.91,0.071c-0.232,0.271-0.2,0.678,0.07,0.91
		C8.989,32.547,8.997,32.551,9.004,32.556z"/>
	<path fill="#FFFFFF" d="M102.376,44.999c-0.005,0.004-0.01,0.005-0.015,0.008c-0.142,0.121-0.158,0.335-0.037,0.476
		s0.335,0.158,0.476,0.037c0.005-0.004,0.006-0.009,0.01-0.013l0.002,0.002l15.62-12.953c0.007-0.006,0.015-0.01,0.023-0.016
		c0.271-0.232,0.302-0.639,0.07-0.91c-0.232-0.271-0.639-0.302-0.91-0.071c-0.008,0.007-0.015,0.016-0.022,0.023l-15.22,13.413
		L102.376,44.999z"/>
	<path fill="#FFFFFF" d="M63.678,92.18c-0.608-0.508-2.31,0.119-2.31,0.119c0.046,0.099,0.187,0.252,0.178,0.255
		c0.201,0.222,0.645,0.339,1.298,0.339c0.284,0,0.543-0.022,0.697-0.035c0.059-0.005,0.104-0.009,0.131-0.01
		c0.036,0.001,0.075,0.004,0.125,0.008c0.145,0.011,0.387,0.03,0.66,0.03c0.703,0,1.362-0.36,1.351-0.363
		c0.092-0.067,0.169-0.146,0.215-0.246C66.024,92.276,64.457,91.712,63.678,92.18z"/>
	<circle fill="#FFFFFF" cx="69.329" cy="79.852" r="0.446"/>
	<circle fill="#FFFFFF" cx="68.624" cy="80.557" r="0.259"/>
	<path fill="#FFFFFF" d="M63.989,31.422c-16.321,0-31.338,8.737-39.775,22.944c13.669-7.663,27.048-11.551,39.777-11.551
		c12.728,0,26.105,3.888,39.772,11.549C95.325,40.158,80.309,31.422,63.989,31.422z"/>
	<path fill="#FFFFFF" d="M105.797,59.211c-0.501-1.183-1.185-2.507-1.421-2.956c-13.908-8.057-27.491-12.151-40.386-12.151
		c-13.143,0-27.001,4.243-41.188,12.61c-0.002,0.001-0.005,0-0.007,0.001c-0.616,1.043-1.172,2.506-1.172,2.506l-0.008,0.009
		c-0.007,0.031-0.006,0.062-0.019,0.093c-2.363,5.612-3.561,11.57-3.561,17.712c0,13.673,6.046,25.954,15.596,34.333
		c-0.097-2.913,0.743-4.894,2.701-6.326c-6.421-6.434-11.05-12.341-12.394-15.82l-0.012-0.056c-0.543-1.588-0.476-3.174,0.197-4.578
		c0.585-1.221,1.571-2.188,2.856-2.804c-0.993-1.86-1.762-3.595-2.226-5.026l-0.009-0.057c-0.456-1.614-0.302-3.195,0.447-4.56
		c0.667-1.214,1.786-2.169,3.161-2.699c-0.942-2.581-1.313-4.607-1.51-5.914l-0.002-0.017l0.003-0.039
		c-0.185-1.668,0.225-3.203,1.187-4.426C29.01,57.798,30.481,57,32.171,56.8c0.044-0.003,0.062,0.001,0.079,0.003
		c0.057,0.002,0.097,0.003,0.141,0.013c0.034,0.008,0.064,0.021,0.094,0.034c0.059,0.026,0.093,0.042,0.125,0.064
		c0.031,0.022,0.056,0.047,0.081,0.073c0.042,0.043,0.067,0.07,0.087,0.103c0.002,0.003,0.003,0.006,0.005,0.01
		c0.012,0.011,0.024,0.022,0.036,0.034c0.023,0.024,0.046,0.046,0.064,0.074c0.018,0.028,0.029,0.06,0.041,0.091
		c0.009,0.023,0.025,0.043,0.031,0.068c0.88,3.86,3.623,13.425,10.206,20.117c0.824-1.054,1.814-1.961,2.945-2.696
		c-0.043-0.433-0.064-0.825-0.064-1.196c0-5.419,3.642-10.184,8.864-11.607c1.556-2.885,4.454-4.606,7.762-4.606
		c0.338,0,0.683,0.018,1.025,0.054c0.315-0.035,0.659-0.053,0.996-0.053c3.31,0,6.208,1.721,7.764,4.606
		c5.222,1.423,8.864,6.188,8.864,11.607c0,0.369-0.021,0.761-0.064,1.196c1.09,0.708,2.049,1.58,2.858,2.591
		c6.508-6.687,9.227-16.172,10.103-20.012c0.006-0.025,0.022-0.045,0.031-0.069c0.012-0.031,0.023-0.063,0.041-0.091
		c0.019-0.029,0.042-0.052,0.066-0.076c0.01-0.01,0.021-0.019,0.031-0.029c0.003-0.005,0.003-0.009,0.006-0.013
		c0.023-0.037,0.051-0.065,0.076-0.089c0.04-0.042,0.063-0.064,0.09-0.084c0.031-0.022,0.063-0.037,0.097-0.052l0.082,0.1
		l-0.051-0.114c0.03-0.014,0.06-0.026,0.093-0.034c0.041-0.01,0.079-0.011,0.112-0.011c0.047-0.005,0.064-0.007,0.081-0.007
		c1.716,0.202,3.187,1,4.168,2.248c0.962,1.224,1.372,2.758,1.186,4.437c0.002,0.001,0.005,0.021,0.001,0.044
		c-0.197,1.308-0.567,3.334-1.51,5.915c1.375,0.53,2.494,1.485,3.161,2.699c0.749,1.364,0.902,2.945,0.444,4.571c0,0,0,0,0,0
		c0.002,0,0.001,0.021-0.006,0.044c-0.464,1.429-1.232,3.165-2.226,5.026c1.285,0.616,2.271,1.583,2.856,2.804
		c0.673,1.404,0.74,2.991,0.192,4.59h0c0.002,0,0,0.02-0.008,0.043c-1.337,3.462-5.937,9.339-12.313,15.739
		c2.051,1.45,2.925,3.479,2.809,6.48c9.598-8.381,15.68-20.693,15.68-34.406c0-6.179-1.212-12.173-3.604-17.813
		C105.797,59.218,105.798,59.214,105.797,59.211z"/>
	<path fill="#FFFFFF" d="M38.43,96.041c-0.24,0.238-0.662,0.237-0.9-0.008c-3.802-3.869-7.326-8.528-9.933-13.131
		c-0.73,0.339-1.343,0.834-1.808,1.427c-0.137,0.197-0.267,0.399-0.371,0.616c-0.546,1.139-0.589,2.437-0.124,3.755
		c0,0,0,0.001,0,0.001c1.334,3.387,5.916,9.172,12.296,15.529c0.67-0.376,1.382-0.694,2.089-1.01
		c0.837-0.374,1.695-0.758,2.469-1.239c0.064-0.042,0.125-0.087,0.187-0.13c0.112-0.078,0.23-0.15,0.337-0.234
		c0.001-0.001,0.001-0.001,0.002-0.002c2.081-1.638,3.672-3.166,3.637-6.58c-3.507-2.188-5.682-6.096-5.682-10.218
		c0-2.204,0.611-4.358,1.769-6.236c-6.749-6.729-9.667-16.426-10.633-20.42c-0.242,0.054-0.471,0.13-0.696,0.214
		c-0.754,0.315-1.411,0.788-1.902,1.413c-0.78,0.993-1.104,2.251-0.937,3.638c0,0.003-0.001,0.005-0.001,0.008
		c0.568,3.722,2.116,9.642,8.833,18.224c0.137,0.174,0.136,0.408,0.023,0.584c-0.034,0.136-0.102,0.26-0.214,0.348
		c-0.271,0.21-0.684,0.159-0.894-0.109c-3.224-4.12-5.635-8.106-7.166-11.853c-0.509,0.197-0.967,0.471-1.37,0.796
		c-0.396,0.351-0.737,0.753-0.99,1.214c-0.607,1.107-0.721,2.401-0.329,3.744c0,0,0,0.001,0,0.002
		c0.474,1.442,1.283,3.246,2.383,5.25c0.045,0.049,0.081,0.108,0.105,0.174c0.002,0.006,0.001,0.013,0.003,0.019
		c2.234,4.03,5.63,8.842,9.908,13.194c0.151,0.154,0.182,0.378,0.099,0.563C38.619,95.751,38.557,95.916,38.43,96.041z"/>
	<path fill="#FFFFFF" d="M98,59.788c-0.491-0.624-1.146-1.097-1.899-1.412c-0.226-0.084-0.457-0.161-0.701-0.215
		c-0.958,3.96-3.848,13.576-10.516,20.301c1.207,1.907,1.844,4.103,1.844,6.355c0,4.122-2.175,8.03-5.682,10.218
		c-0.036,3.414,1.554,4.942,3.635,6.579c0.001,0.001,0.003,0.002,0.004,0.003c0.936,0.736,2.09,1.252,3.207,1.751
		c0.599,0.268,1.273,0.57,1.905,0.909c6.331-6.324,10.896-12.1,12.218-15.458c0.456-1.291,0.414-2.565-0.121-3.681
		c-0.141-0.294-0.321-0.562-0.521-0.816c-0.463-0.591-1.068-1.077-1.806-1.419c-2.607,4.604-6.131,9.263-9.933,13.131
		c-0.239,0.244-0.658,0.246-0.901,0.007c-0.127-0.125-0.189-0.292-0.188-0.458c-0.082-0.185-0.05-0.408,0.1-0.561
		c4.277-4.352,7.674-9.165,9.908-13.195c0.002-0.006,0-0.012,0.003-0.018c0.023-0.067,0.06-0.125,0.104-0.174
		c1.099-2.004,1.909-3.808,2.383-5.249c0-0.001,0-0.002,0-0.003c0.392-1.341,0.279-2.636-0.329-3.743
		c-0.252-0.459-0.591-0.86-0.985-1.21c-0.405-0.328-0.865-0.603-1.377-0.801c-1.532,3.748-3.942,7.735-7.166,11.853
		c-0.21,0.268-0.624,0.319-0.894,0.109c-0.113-0.089-0.182-0.214-0.215-0.352c-0.111-0.176-0.11-0.408,0.026-0.581
		c6.716-8.582,8.264-14.502,8.833-18.224c0-0.003-0.001-0.005-0.001-0.008C99.104,62.039,98.78,60.781,98,59.788z"/>
	<path fill="#FFFFFF" d="M71.882,63.143l-0.024-0.007c-0.179-0.049-0.325-0.167-0.405-0.328c-1.303-2.604-3.835-4.158-6.774-4.158
		c-0.307,0-0.62,0.017-0.931,0.051l-0.118,0.001c-0.332-0.035-0.645-0.053-0.952-0.053c-2.939,0-5.471,1.555-6.773,4.159
		c-0.081,0.162-0.228,0.28-0.405,0.327l-0.03,0.009c-4.799,1.192-8.155,5.489-8.155,10.447c0,0.164,0.004,0.331,0.012,0.5
		c1.679-0.833,3.482-1.255,5.364-1.255l0.056,0.009c3.14-0.135,6.181-2.408,7.053-5.235c-1.412,0.851-3.014,1.298-4.653,1.298
		c-0.822,0-1.575-0.089-2.301-0.272c-0.34-0.086-0.547-0.433-0.461-0.773c0.083-0.332,0.434-0.544,0.772-0.461
		c0.623,0.158,1.274,0.234,1.99,0.234c3.163,0,5.99-1.917,7.213-4.828c-1.231,1.182-2.858,1.907-4.549,2.013l-0.04,0.001
		c-0.335,0-0.614-0.262-0.635-0.597c-0.01-0.169,0.046-0.333,0.158-0.461c0.113-0.127,0.268-0.204,0.438-0.214
		c2.473-0.155,4.611-1.852,5.322-4.224c0.08-0.266,0.325-0.444,0.611-0.444l0.032,0c0.286,0,0.531,0.178,0.611,0.443
		c0.711,2.372,2.849,4.069,5.321,4.224c0.17,0.01,0.326,0.086,0.438,0.214c0.112,0.127,0.168,0.291,0.157,0.46
		c-0.021,0.334-0.299,0.597-0.634,0.597l-0.038-0.001c-1.694-0.106-3.321-0.832-4.552-2.013c1.223,2.912,4.05,4.828,7.213,4.828
		c0.717,0,1.367-0.077,1.989-0.234c0.339-0.084,0.689,0.128,0.773,0.461c0.086,0.34-0.121,0.688-0.461,0.773
		c-0.726,0.184-1.479,0.272-2.301,0.272c-1.64,0-3.242-0.448-4.654-1.298c0.873,2.827,3.914,5.1,7.077,5.234
		c-0.014-0.001,0.006-0.008,0.032-0.008c1.881,0,3.685,0.422,5.364,1.255c0.007-0.167,0.011-0.334,0.011-0.5
		C80.043,68.633,76.687,64.337,71.882,63.143z"/>
	<path fill="#FFFFFF" d="M53.631,109.239c2.891-4.254,1.973-9.618,1.483-11.614c-0.726,1.573-0.883,3.15-1.035,4.679
		c-0.348,3.484-0.676,6.773-6.993,9.178c-2.192,0.835-4.07,0.838-5.886,0.84h-0.06c-1.797,0-3.49,0.011-5.325,0.85
		c0.948,0.733,1.923,1.434,2.928,2.093C45.957,114.977,50.962,112.949,53.631,109.239z"/>
	<path fill="#FFFFFF" d="M37.614,107.889c1.464-1.161,2.928-1.314,4.515-1.478c0.819-0.084,1.666-0.172,2.572-0.413
		c1.263-0.336,2.286-0.838,3.089-1.519c1.69-1.575,2.282-4.054,1.884-7.66c-0.457-4.146,0.796-6.884,1.23-7.686
		c-0.623-3.063-0.901-6.31-1.005-7.833c-0.769,0.918-3.126,4.086-3.006,8.214c0.011,0.243,0.023,0.486,0.052,0.735
		c0.002,0.015,0.002,0.03,0.004,0.045c0.041,0.338,0.098,0.682,0.176,1.03c0.192,0.86,0.312,1.642,0.379,2.365
		c0.512,4.864-1.531,6.951-4.046,8.929c-1.058,0.833-2.286,1.382-3.473,1.913c-2.233,0.999-4.226,1.891-4.872,4.467
		c-0.151,0.603-0.229,1.297-0.219,2.107c0.027-0.046,0.054-0.085,0.081-0.13C35.871,109.475,36.742,108.515,37.614,107.889z"/>
	<path fill="#FFFFFF" d="M44.868,107.389c-0.996,0.265-1.892,0.357-2.758,0.447c-2.223,0.229-3.992,0.418-5.995,3.724
		c1.828-0.694,3.524-0.7,5.178-0.7c1.718,0.003,3.494,0.003,5.499-0.76c2.051-0.781,3.384-1.649,4.274-2.594
		c1.365-1.582,1.552-3.373,1.746-5.327c0.167-1.678,0.375-3.758,1.52-5.796c-0.24-0.203-0.475-0.406-0.7-0.609
		c-0.861-0.776-1.608-2.293-2.222-4.511c-0.386,1.236-0.728,3.086-0.471,5.417C51.604,102.708,49.674,106.11,44.868,107.389z"/>
	<path fill="#FFFFFF" d="M42.115,82.692c-0.139,0.687-0.214,1.398-0.214,2.126c0,3.367,1.598,6.557,4.289,8.592
		c-0.007-0.055-0.023-0.117-0.031-0.173c-0.069-0.477-0.153-0.969-0.267-1.48c-0.877-3.94,0.403-7.26,1.718-9.434
		c-0.136,0.042-0.274,0.08-0.413,0.115c-0.02,0.015-0.047,0.03-0.083,0.039c-1.241,0.296-2.106,1.027-2.571,2.173
		c-0.128,0.317-0.512,0.479-0.829,0.351c-0.326-0.132-0.483-0.504-0.351-0.829c0.587-1.449,1.708-2.441,3.239-2.87
		c0.031-0.02,0.069-0.04,0.117-0.051c3.269-0.73,5.557-3.773,5.369-7.109C47.098,74.414,43.065,78,42.115,82.692z"/>
	<path fill="#FFFFFF" d="M63.239,114.618c-1.563-1.993-6.033-4.236-8.747-4.401c-0.086,0.119-0.178,0.236-0.268,0.353
		c3.999,0.642,7.623,3.908,9.498,6.487c1.954-3.032,4.445-5.833,9.611-6.223c-0.17-0.206-0.339-0.413-0.491-0.623
		c-4.56,0.11-7.344,2.806-8.602,4.408C63.997,114.928,63.48,114.928,63.239,114.618z"/>
	<path fill="#FFFFFF" d="M74.649,112.238c-5.893,0-8.267,3.046-10.369,6.44c-0.116,0.187-0.316,0.299-0.536,0.301
		c-0.223,0-0.423-0.109-0.541-0.292c-2.05-3.191-6.311-6.638-10.191-6.774c-2.705,2.59-6.776,4.155-12.09,4.677
		c6.715,3.885,14.494,6.128,22.795,6.128c8.294,0,16.066-2.24,22.778-6.119c-5.135-0.492-9.118-1.952-11.829-4.362
		C74.662,112.238,74.656,112.238,74.649,112.238z"/>
	<path fill="#FFFFFF" d="M63.747,101.521c-1.552,0-4.233-1.273-7.211-3.417c0.512,2.462,0.92,6.812-1.199,10.757
		c2.771,0.432,6.546,2.317,8.391,4.244c1.438-1.668,4.134-3.942,8.248-4.295c-2.266-4.269-1.577-9.027-1.059-11.223
		C68.382,99.534,65.097,101.521,63.747,101.521z"/>
	<path fill="#FFFFFF" d="M75.905,91.119c-0.517,1.691-1.137,2.931-1.844,3.69c-0.346,0.37-0.763,0.776-1.242,1.207
		c1.325,2.133,1.538,4.272,1.727,6.163c0.195,1.953,0.381,3.744,1.744,5.325c0.889,0.946,2.224,1.816,4.276,2.597
		c2.005,0.763,3.785,0.761,5.499,0.76c1.651-0.001,3.349,0.005,5.178,0.7c-2.004-3.306-3.772-3.495-5.986-3.723
		c-0.875-0.091-1.771-0.183-2.767-0.448c-4.807-1.279-6.737-4.682-6.072-10.709C76.684,94.26,76.315,92.368,75.905,91.119z"/>
	<path fill="#FFFFFF" d="M75.268,74.14c-0.188,3.335,2.101,6.379,5.369,7.109c0.048,0.011,0.085,0.031,0.116,0.047
		c1.533,0.432,2.653,1.424,3.24,2.873c0.132,0.326-0.025,0.698-0.351,0.829c-0.317,0.127-0.7-0.033-0.829-0.35
		c-0.464-1.146-1.329-1.877-2.569-2.173c-0.036-0.009-0.064-0.024-0.084-0.035c-0.139-0.037-0.276-0.076-0.412-0.118
		c1.314,2.174,2.595,5.494,1.717,9.434c-0.114,0.512-0.198,1.003-0.267,1.481c-0.008,0.056-0.024,0.118-0.031,0.173
		c2.691-2.035,4.289-5.225,4.289-8.592c0-0.726-0.074-1.435-0.213-2.12C84.295,78.003,80.261,74.414,75.268,74.14z"/>
	<path fill="#FFFFFF" d="M86.462,112.323h-0.32c-1.812-0.004-3.685-0.008-5.87-0.84c-6.318-2.405-6.646-5.694-6.993-9.177
		c-0.154-1.539-0.312-3.127-1.045-4.705c-0.493,1.999-1.418,7.381,1.475,11.638c0.005,0.007,0.008,0.014,0.013,0.021
		c2.628,3.846,7.708,5.941,15.102,6.229c1.052-0.69,2.073-1.42,3.038-2.172c-0.089-0.045-0.177-0.08-0.266-0.121
		C89.89,112.399,88.312,112.323,86.462,112.323z"/>
	<path fill="#FFFFFF" d="M89.654,105.661c-0.027-0.008-0.065-0.035-0.099-0.058c-0.682-0.4-1.445-0.742-2.183-1.072
		c-1.189-0.533-2.416-1.082-3.474-1.914c-2.516-1.979-4.56-4.068-4.045-8.939c0.072-0.678,0.191-1.408,0.368-2.201
		c0.089-0.401,0.144-0.793,0.184-1.18c0.008-0.079,0.013-0.157,0.019-0.236c0.017-0.178,0.028-0.354,0.036-0.528
		c0.122-4.168-2.295-7.385-3.024-8.257c-0.09,1.533-0.347,4.789-1.009,7.815c0.442,0.798,1.717,3.526,1.253,7.727
		c-0.398,3.605,0.194,6.084,1.883,7.658c0.821,0.766,1.897,1.321,3.252,1.681c0.903,0.24,1.75,0.327,2.57,0.412
		c1.537,0.159,2.95,0.309,4.357,1.319c0.871,0.625,1.74,1.584,2.634,3.08c0.028,0.047,0.056,0.088,0.084,0.136
		c0.009-0.745-0.066-1.378-0.192-1.938C91.843,107.269,90.75,106.321,89.654,105.661z"/>
	<circle fill="#FFFFFF" cx="58.715" cy="79.852" r="0.446"/>
	<circle fill="#FFFFFF" cx="58.01" cy="80.557" r="0.259"/>
	<path fill="#FFFFFF" d="M73.998,74.066c-4.134-0.451-7.674-3.828-7.946-7.593c-1.06-0.983-1.875-2.201-2.374-3.542
		c-0.5,1.342-1.315,2.56-2.374,3.542c-0.271,3.766-3.812,7.143-7.946,7.593c0.126,2.239-0.692,4.45-2.258,6.093
		c0.005,0.021,0.008,0.04,0.009,0.061c0.104,2.287,0.558,7.275,1.571,10.88c0.47,1.628,1.057,2.962,1.782,3.616
		c3.257,2.936,7.509,5.416,9.284,5.416c1.228,0,6.646-3.34,9.41-6.304c0.697-0.747,1.247-2.037,1.68-3.548
		c0.954-3.421,1.314-7.94,1.374-9.978c0.001-0.056,0.011-0.11,0.027-0.162C74.684,78.498,73.872,76.295,73.998,74.066z
		 M65.286,77.215c1.075-0.873,1.972-1.515,3.744-1.836c0.441-0.08,0.84-0.119,1.219-0.119c1.046,0,2.013,0.296,3.044,0.932
		l-0.059,0.115v0.116l-0.001-0.113l-0.053,0.104c-1.417-0.596-2.86-0.658-4.162-0.178c-0.548,0.203-1.077,0.482-1.588,0.751
		c-0.128,0.067-0.256,0.135-0.384,0.201c-0.292,0.151-0.592,0.294-0.894,0.425c-0.281,0.122-0.512,0.184-0.688,0.184
		c-0.24,0-0.318-0.117-0.342-0.186C65.078,77.485,65.14,77.334,65.286,77.215z M64.379,88.537c0.248-0.373,0.475-0.622,0.677-0.789
		c0.441-0.367,0.755-0.335,0.9-0.285c0.047,0.016,0.083,0.034,0.092,0.04l0.057,0.042L66.1,87.615
		c-0.07,0.824-0.902,1.117-1.592,1.117l-0.253-0.008L64.379,88.537z M62.967,88.537l0.125,0.187l-0.253,0.008
		c-0.69,0-1.522-0.292-1.592-1.117l-0.006-0.071l0.057-0.042c0.009-0.006,0.045-0.024,0.093-0.04
		c0.146-0.05,0.461-0.081,0.903,0.287C62.495,87.918,62.72,88.167,62.967,88.537z M57.057,75.26c0.379,0,0.777,0.039,1.219,0.119
		c1.771,0.321,2.669,0.964,3.744,1.836c0.146,0.119,0.208,0.27,0.164,0.396c-0.024,0.069-0.102,0.186-0.342,0.186
		c-0.175,0-0.407-0.062-0.688-0.184c-0.304-0.132-0.605-0.275-0.894-0.425c-0.129-0.067-0.258-0.135-0.388-0.203
		c-0.51-0.269-1.038-0.547-1.585-0.75c-1.301-0.481-2.745-0.418-4.162,0.178l-0.114-0.222C55.044,75.556,56.011,75.26,57.057,75.26z
		 M54.847,80.718c-1.019-0.146-1.854-0.611-2.356-1.312l-0.386-0.538l0.555,0.36c0.042,0.027,0.082,0.046,0.124,0.072
		c0.133,0.082,0.267,0.16,0.4,0.228c0.097,0.049,0.19,0.086,0.282,0.124c0.069,0.029,0.138,0.057,0.205,0.08
		c0.112,0.038,0.22,0.069,0.321,0.088c0.028,0.006,0.055,0.008,0.082,0.012c0.109,0.016,0.214,0.026,0.307,0.019
		c-0.509-0.273-0.969-0.794-1.271-1.457l-0.228-0.501l0.422,0.354c0.089,0.074,0.181,0.158,0.278,0.246
		c0.383,0.347,0.81,0.733,1.326,0.837c-0.281-0.249-0.52-0.663-0.722-1.25l-0.217-0.63l0.511,0.604
		c0.332,0.395,0.576,0.674,0.869,0.838c0.027,0.015,0.054,0.031,0.083,0.045c0.096,0.044,0.196,0.08,0.309,0.099
		c0.002,0,0.004,0,0.005,0.001c-0.18-0.218-0.434-0.583-0.49-1.021l-0.064-0.501l0.291,0.414c0.321,0.455,0.631,0.703,0.861,0.83
		c-0.125-0.235-0.202-0.54-0.165-0.872l0.059-0.527l0.183,0.498c0.279,0.759,0.498,0.855,0.773,0.89
		c0.222-0.042,0.449-0.063,0.674-0.063c0.696,0,1.205,0.198,1.392,0.283c1.154,0.526,1.707,1.239,1.934,1.617l0.482,0.804L61,80.739
		c-0.552-0.53-1.085-0.839-1.376-0.98c0.03,0.114,0.045,0.231,0.045,0.351c0,0.323-0.112,0.637-0.315,0.885
		c-0.261,0.319-0.645,0.502-1.053,0.502c-0.358,0-0.696-0.14-0.953-0.395c-0.163-0.161-0.284-0.362-0.351-0.581
		c-0.045-0.132-0.063-0.346-0.063-0.412c0-0.18,0.035-0.357,0.101-0.521c-0.338,0.06-0.995,0.281-1.496,0.91
		c0.452,0.444,1.005,0.765,1.562,0.98c0.02,0.008,0.039,0.016,0.059,0.024c0.273,0.102,0.546,0.179,0.809,0.229
		c0.008,0.002,0.016,0.003,0.025,0.004c0.267,0.05,0.524,0.076,0.755,0.076c0.162,0,0.465-0.023,0.465-0.023
		c0.015-0.002,0.049,0.234,0.049,0.234c-0.29,0.075-0.606,0.113-0.941,0.113C57.018,82.136,55.598,81.555,54.847,80.718z
		 M68.365,92.332c-1.517,1.015-1.671,2.612-4.676,2.612c-2.769,0-3.151-1.597-4.676-2.613c-0.025-0.017-0.048-0.034-0.073-0.051
		c0,0,1.402-0.101,2.467-0.894c0,0,1.636-1.11,2.282-0.353c0.646-0.757,2.282,0.353,2.282,0.353
		c1.065,0.793,2.467,0.894,2.467,0.894C68.412,92.297,68.39,92.315,68.365,92.332z M74,78.249l0.422-0.354l-0.228,0.501
		c-0.302,0.662-0.761,1.184-1.271,1.457c0.096,0.007,0.204-0.003,0.318-0.021c0.022-0.004,0.042-0.005,0.064-0.01
		c0.107-0.02,0.221-0.053,0.339-0.093c0.057-0.02,0.115-0.044,0.173-0.068c0.102-0.041,0.204-0.082,0.312-0.137
		c0.108-0.054,0.221-0.123,0.334-0.19c0.061-0.037,0.12-0.065,0.183-0.106l0.556-0.36l-0.386,0.538
		c-0.502,0.7-1.338,1.165-2.356,1.312c-0.751,0.837-2.171,1.418-3.474,1.418c-0.335,0-0.652-0.038-0.941-0.113l0.048-0.23
		c-0.015-0.004-0.031-0.004-0.045-0.008c0.015,0.002,0.031,0.002,0.046,0.004l0.002-0.01c0.145,0.022,0.301,0.034,0.463,0.034
		c0.232,0,0.489-0.026,0.757-0.077c0.007-0.001,0.014-0.002,0.021-0.004c0.264-0.051,0.538-0.128,0.813-0.23
		c0.018-0.007,0.035-0.014,0.053-0.021c0.559-0.215,1.114-0.537,1.566-0.982c-0.506-0.633-1.168-0.854-1.497-0.911
		c0.067,0.166,0.102,0.343,0.102,0.523c0,0.066-0.019,0.28-0.065,0.416c-0.066,0.216-0.188,0.417-0.35,0.577
		c-0.257,0.255-0.595,0.395-0.953,0.395c-0.408,0-0.792-0.183-1.053-0.502c-0.203-0.249-0.315-0.563-0.315-0.885
		c0-0.121,0.015-0.239,0.045-0.353c-0.285,0.139-0.821,0.449-1.376,0.982l-0.677,0.65l0.483-0.805
		c0.227-0.378,0.78-1.091,1.934-1.617c0.187-0.085,0.695-0.283,1.392-0.283c0.225,0,0.452,0.021,0.674,0.063
		c0.275-0.035,0.494-0.131,0.773-0.89l0.183-0.498l0.059,0.527c0.037,0.333-0.039,0.637-0.164,0.872
		c0.23-0.127,0.541-0.375,0.861-0.83l0.291-0.413l-0.064,0.501c-0.057,0.438-0.31,0.802-0.49,1.021
		c0.121-0.021,0.227-0.058,0.328-0.106c0.018-0.009,0.035-0.019,0.053-0.029c0.302-0.163,0.548-0.447,0.885-0.847l0.51-0.604
		l-0.217,0.63c-0.202,0.587-0.44,1.001-0.722,1.25c0.517-0.104,0.943-0.49,1.326-0.837C73.819,78.407,73.912,78.323,74,78.249z"/>
	<path fill="#FFFFFF" d="M65.539,93.708c-0.031,0.017-0.062,0.034-0.094,0.051l-0.098,0.037c-0.066,0.023-0.13,0.058-0.195,0.079
		c-0.066,0.016-0.131,0.032-0.196,0.053c-0.067,0.009-0.133,0.018-0.197,0.027c-0.065,0.01-0.135,0.007-0.199,0.013
		c-0.068,0.003-0.132,0.005-0.191,0.008c-0.242,0.009-0.408,0.059-0.408,0.059s0.148,0.093,0.374,0.185
		c0.057,0.023,0.115,0.051,0.188,0.067c0.071,0.016,0.144,0.045,0.227,0.05c0.083,0.004,0.171,0.013,0.259,0.005
		c0.088-0.015,0.176-0.035,0.265-0.055c0.084-0.03,0.162-0.072,0.24-0.111c0.081-0.036,0.149-0.085,0.21-0.138
		c0.063-0.05,0.121-0.104,0.175-0.153c0.058-0.046,0.099-0.103,0.138-0.154c0.16-0.202,0.237-0.361,0.237-0.361
		s-0.169,0.051-0.379,0.163C65.791,93.595,65.664,93.642,65.539,93.708z"/>
	<path fill="#FFFFFF" d="M62.784,93.94c-0.047-0.012-0.097-0.015-0.147-0.032c-0.05-0.014-0.101-0.027-0.153-0.036
		c-0.052-0.008-0.102-0.031-0.154-0.043c-0.105-0.021-0.204-0.065-0.304-0.09c-0.047-0.02-0.096-0.034-0.143-0.049
		c-0.048-0.014-0.086-0.033-0.128-0.046c-0.081-0.025-0.159-0.058-0.212-0.078c-0.055-0.019-0.088-0.027-0.088-0.027
		s0.011,0.035,0.034,0.09c0.023,0.056,0.055,0.131,0.125,0.211c0.033,0.039,0.068,0.091,0.113,0.125
		c0.044,0.038,0.09,0.079,0.141,0.117c0.052,0.036,0.111,0.064,0.17,0.094c0.058,0.033,0.123,0.052,0.187,0.07
		c0.065,0.014,0.129,0.039,0.195,0.04c0.066,0.005,0.13,0.006,0.192,0.005c0.062,0.004,0.122-0.018,0.177-0.028
		c0.056-0.011,0.107-0.027,0.154-0.042c0.185-0.082,0.285-0.176,0.285-0.176s-0.136-0.048-0.307-0.071
		C62.878,93.96,62.832,93.947,62.784,93.94z"/>
</g>
</svg>
